<?xml version="1.0" encoding="utf-8"?>
<!-- Generator: Adobe Illustrator 16.0.0, SVG Export Plug-In . SVG Version: 6.00 Build 0)  -->
<!DOCTYPE svg PUBLIC "-//W3C//DTD SVG 1.1//EN" "http://www.w3.org/Graphics/SVG/1.1/DTD/svg11.dtd">
<svg version="1.1"
	 id="svg2" xmlns:dc="http://purl.org/dc/elements/1.1/" xmlns:cc="http://creativecommons.org/ns#" xmlns:rdf="http://www.w3.org/1999/02/22-rdf-syntax-ns#" xmlns:svg="http://www.w3.org/2000/svg" xmlns:sodipodi="http://sodipodi.sourceforge.net/DTD/sodipodi-0.dtd" xmlns:inkscape="http://www.inkscape.org/namespaces/inkscape" sodipodi:docname="Novo documento 1" inkscape:version="0.48.0 r9654"
	 xmlns="http://www.w3.org/2000/svg" xmlns:xlink="http://www.w3.org/1999/xlink" x="0px" y="0px" width="595.275px"
	 height="841.89px" viewBox="0 0 595.275 841.89" enable-background="new 0 0 595.275 841.89" xml:space="preserve">
<sodipodi:namedview  showgrid="false" inkscape:cy="520" inkscape:cx="350" inkscape:zoom="0.71230469" borderopacity="1.0" bordercolor="#666666" pagecolor="#ffffff" id="base" inkscape:window-maximized="1" inkscape:window-y="-8" inkscape:current-layer="layer1" inkscape:document-units="px" inkscape:pageopacity="0.0" inkscape:window-x="-8" inkscape:window-height="720" inkscape:pageshadow="2" inkscape:window-width="1280">
	</sodipodi:namedview>
<g id="layer1" inkscape:label="Camada 1" inkscape:groupmode="layer">
	<path id="path72" inkscape:connector-curvature="0" fill="#7CB124" d="M241.818,65.625C240.318-22.337,3.535-22.964,0.07,70.347
		c-2.203,59.339,47.981,98.412,49.053,150.797c0.979,47.795,150.328,44.055,147.225-2.996
		C191.785,148.948,237.028,118.299,241.818,65.625"/>
	<g id="g74" transform="matrix(1.25,0,0,-1.25,-168.30596,800.20705)">
		<g id="g76">
			<g id="g82">
				
					<linearGradient id="path92_1_" gradientUnits="userSpaceOnUse" x1="127.476" y1="-14.2762" x2="128.3167" y2="-14.2762" gradientTransform="matrix(-128.5225 -169.6497 170.3135 -129.0254 19091.1172 20309.6367)">
					<stop  offset="0" style="stop-color:#7CB124"/>
					<stop  offset="0.59" style="stop-color:#7CB124"/>
					<stop  offset="1" style="stop-color:#AAC83B"/>
				</linearGradient>
				<path id="path92" inkscape:connector-curvature="0" fill="url(#path92_1_)" d="M232.901,499.793
					c31.314,0,56.709-14.062,56.709-31.403c0-17.339-25.395-31.401-56.709-31.401c-31.314,0-56.709,14.062-56.709,31.401
					C176.192,485.732,201.587,499.793,232.901,499.793"/>
			</g>
		</g>
	</g>
	<g id="g94" transform="matrix(1.25,0,0,-1.25,-168.30596,800.20705)">
		<g id="g96">
			<g id="g102">
				
					<linearGradient id="path122_1_" gradientUnits="userSpaceOnUse" x1="130.4623" y1="-13.2707" x2="131.4247" y2="-13.2707" gradientTransform="matrix(0 128.8382 -247.7579 0 -3055.8818 -16268.2529)">
					<stop  offset="0" style="stop-color:#7CB124"/>
					<stop  offset="0.37" style="stop-color:#7CB124"/>
					<stop  offset="0.43" style="stop-color:#7CB124"/>
					<stop  offset="0.49" style="stop-color:#7CB126"/>
					<stop  offset="0.49" style="stop-color:#7CB126"/>
					<stop  offset="0.55" style="stop-color:#7EB225"/>
					<stop  offset="0.61" style="stop-color:#83B528"/>
					<stop  offset="1" style="stop-color:#BADC41"/>
				</linearGradient>
				<path id="path122" inkscape:connector-curvature="0" fill="url(#path122_1_)" d="M231.99,540.275
					c50.256,0,91.012,22.208,91.012,49.592c0,27.385-40.756,49.592-91.012,49.592c-50.255,0-91.011-22.207-91.011-49.592
					C140.979,562.482,181.735,540.275,231.99,540.275"/>
			</g>
		</g>
	</g>
	<path id="path124" inkscape:connector-curvature="0" fill="#FFFFFF" d="M114.277,74.902h10.185
		c11.204,0,20.369,9.041,20.369,20.092v137.903c0,11.05-9.166,20.092-20.369,20.092h-10.185c-11.203,0-20.369-9.042-20.369-20.092
		V94.994C93.908,83.943,103.075,74.902,114.277,74.902"/>
	<path id="path126" inkscape:connector-curvature="0" fill="#FFFFFF" d="M119.37,4.894c15.642,0,28.326,13.925,28.326,31.095
		s-12.684,31.095-28.326,31.095c-15.641,0-28.326-13.925-28.326-31.095S103.729,4.894,119.37,4.894"/>
	<path id="path128" inkscape:connector-curvature="0" fill="#656263" d="M300.137,196.942h4.666v21.329
		c0,3.703-0.4,6.649-1.205,8.833c-0.804,2.182-2.246,3.953-4.338,5.319c-2.091,1.374-4.831,2.054-8.226,2.054
		c-3.296,0-6.002-0.594-8.094-1.787c-2.1-1.186-3.6-2.914-4.494-5.174c-0.902-2.259-1.344-5.336-1.344-9.245v-21.329h4.658v21.302
		c0,3.205,0.287,5.569,0.852,7.08c0.566,1.521,1.55,2.689,2.928,3.515c1.385,0.825,3.083,1.238,5.084,1.238
		c3.429,0,5.872-0.817,7.332-2.449c1.452-1.624,2.181-4.753,2.181-9.384V196.942L300.137,196.942z M376.197,233.85v-36.908h23.767
		v4.356h-19.1v11.427h16.524v4.359h-16.524v16.765H376.197L376.197,233.85z M469.218,233.85v-36.908h13.22
		c2.69,0,4.847,0.378,6.471,1.116c1.632,0.748,2.902,1.9,3.821,3.455c0.918,1.547,1.386,3.171,1.386,4.872
		c0,1.573-0.41,3.06-1.229,4.453c-0.812,1.391-2.051,2.517-3.699,3.375c2.132,0.654,3.765,1.771,4.912,3.344
		c1.148,1.581,1.722,3.445,1.722,5.595c0,1.726-0.352,3.333-1.049,4.819c-0.697,1.487-1.558,2.631-2.584,3.438
		c-1.025,0.808-2.312,1.409-3.854,1.821c-1.542,0.413-3.437,0.62-5.684,0.62H469.218L469.218,233.85z M473.884,212.452h7.619
		c2.058,0,3.542-0.145,4.444-0.428c1.182-0.37,2.074-0.981,2.674-1.84c0.598-0.858,0.902-1.932,0.902-3.221
		c0-1.222-0.279-2.304-0.837-3.231c-0.566-0.938-1.37-1.573-2.402-1.917c-1.042-0.344-2.83-0.515-5.364-0.515h-7.036V212.452
		L473.884,212.452z M473.884,229.493h8.767c1.509,0,2.567-0.06,3.174-0.173c1.074-0.205,1.968-0.541,2.69-1.013
		c0.722-0.464,1.312-1.152,1.779-2.045c0.459-0.904,0.696-1.934,0.696-3.11c0-1.376-0.335-2.571-1.008-3.594
		c-0.673-1.013-1.607-1.727-2.806-2.139c-1.188-0.404-2.91-0.611-5.149-0.611h-8.144V229.493L473.884,229.493z M561.762,233.85
		l13.531-36.908h5.019l14.418,36.908h-5.314l-4.108-11.181h-14.729l-3.862,11.181H561.762z M571.923,218.692h11.948l-3.683-10.217
		c-1.115-3.103-1.952-5.656-2.493-7.657c-0.451,2.372-1.082,4.718-1.901,7.054L571.923,218.692z"/>
	
		<path id="path130" inkscape:connector-curvature="0" fill="#231F20" stroke="#231F20" stroke-width="0.27" stroke-miterlimit="22.9256" d="
		M291.213,167.557h-13.992v-82.51h13.992V167.557z M293.002,60.839c0,2.898-0.813,5.228-2.44,7.018
		c-1.627,1.79-3.796,2.699-6.507,2.699c-2.549,0-4.637-0.909-6.292-2.728c-1.654-1.818-2.494-4.148-2.494-6.989
		c0-2.785,0.84-5.115,2.521-6.961c1.682-1.847,3.77-2.756,6.265-2.756c2.656,0,4.827,0.909,6.48,2.728
		C292.189,55.668,293.002,57.998,293.002,60.839L293.002,60.839z M311.713,167.557v-60.519c0-5.854-0.218-13.184-0.651-21.992
		h12.364l0.651,11.763h0.326c4.88-8.865,12.255-13.297,22.126-13.297c6.941,0,12.581,2.728,16.92,8.211
		c4.339,5.484,6.507,13.383,6.507,23.668v52.166h-13.991v-50.119c0-14.435-4.772-21.651-14.316-21.651
		c-4.501,0-8.271,1.96-11.334,5.881c-3.065,3.921-4.61,9.008-4.61,15.257v50.632H311.713L311.713,167.557z M406.4,167.557h-13.991
		V96.127h-10.412V85.046h10.412v-4.433c0-7.728,1.111-14.121,3.308-19.178c2.196-5.058,5.261-8.808,9.22-11.251
		c3.958-2.444,8.351-3.665,13.178-3.665c4.23,0,7.973,0.738,11.226,2.216l-1.952,11.251c-2.332-1.023-4.989-1.535-7.972-1.535
		c-8.678,0-13.016,7.274-13.016,21.821v4.773h16.595v11.081H406.4V167.557L406.4,167.557z M492.14,125.791
		c0,9.035-1.383,16.791-4.175,23.298c-2.793,6.507-6.752,11.48-11.851,14.888c-5.098,3.411-10.656,5.116-16.676,5.116
		c-9.544,0-17.272-3.808-23.184-11.393c-5.912-7.588-8.867-17.929-8.867-31.055c0-13.809,3.146-24.464,9.41-31.937
		c6.263-7.473,14.127-11.194,23.617-11.194c9.544,0,17.218,3.779,23.021,11.365C489.239,102.463,492.14,112.777,492.14,125.791
		L492.14,125.791z M441.38,126.302c0,8.978,1.681,16.479,5.016,22.503s7.729,9.035,13.206,9.035s9.896-3.067,13.232-9.178
		c3.335-6.108,4.989-13.609,4.989-22.531c0-8.807-1.572-16.252-4.746-22.303c-3.172-6.052-7.619-9.064-13.313-9.064
		c-5.803,0-10.304,2.984-13.53,8.95C443.007,109.681,441.38,117.208,441.38,126.302L441.38,126.302z"/>
	<path id="path132" inkscape:connector-curvature="0" fill="#231F20" d="M507.286,200.814l-1.627-11.593
		c4.284-0.511,7.782-1.733,10.494-3.665c2.711-1.932,4.609-4.999,5.666-9.177c1.059-4.176,1.573-11.422,1.573-21.763v-71.43h13.991
		v76.202c0,12.502-1.463,21.424-4.419,26.794s-6.833,9.119-11.633,11.251C516.532,199.564,511.841,200.701,507.286,200.814
		L507.286,200.814z M539.175,58.978c0,2.841-0.813,5.171-2.469,6.989c-1.653,1.819-3.823,2.728-6.48,2.728
		c-2.549,0-4.637-0.937-6.29-2.784c-1.655-1.847-2.495-4.148-2.495-6.933c0-2.841,0.84-5.171,2.521-6.989s3.823-2.728,6.426-2.728
		c2.604,0,4.72,0.91,6.346,2.728C538.361,53.807,539.175,56.137,539.175,58.978L539.175,58.978z M557.396,165.696v-58.813
		c0-6.649-0.217-14.547-0.65-23.696h12.365l0.65,14.49h0.488c1.626-4.944,4.203-8.864,7.728-11.734
		c3.525-2.87,7.294-4.291,11.308-4.291l3.417,0.17v14.491c-0.598-0.228-1.845-0.341-3.743-0.341c-4.826,0-8.947,2.102-12.392,6.308
		c-3.443,4.206-5.179,10.456-5.179,18.752v44.665H557.396L557.396,165.696z"/>
</g>
</svg>
