<?xml version="1.0" encoding="utf-8"?>
<!-- Generator: Adobe Illustrator 16.0.0, SVG Export Plug-In . SVG Version: 6.00 Build 0)  -->
<!DOCTYPE svg PUBLIC "-//W3C//DTD SVG 1.1//EN" "http://www.w3.org/Graphics/SVG/1.1/DTD/svg11.dtd">
<svg version="1.1" id="Layer_1" xmlns="http://www.w3.org/2000/svg" xmlns:xlink="http://www.w3.org/1999/xlink" x="0px" y="0px"
	 width="816px" height="1056px" viewBox="0 0 816 1056" enable-background="new 0 0 816 1056" xml:space="preserve">
<g>
	<title>Layer 1</title>
	<g id="layer1">
		<path id="path3930" d="M540.579,779.688c-3.534,1.448-7.447,2.829-8.694,3.065c-2.982,0.568-6.088-0.512-8.487-2.949
			c-1.07-1.086-2.277-2.014-2.684-2.062c-0.405-0.046-2.547-0.801-4.759-1.674c-13.66-5.398-21.589-8.1-22.483-7.663
			c-0.539,0.265-2.002,0.383-3.252,0.263c-3.541-0.338-23.315-5.982-31.194-8.906c-8.343-3.096-10.312-4.726-11.906-9.848
			c-0.506-1.63-1.436-3.6-2.063-4.38c-1.64-2.03-4.498-3.201-6.511-2.667c-1.196,0.321-2.332,0.095-3.745-0.742
			c-2.929-1.731-3.832-3.029-3.959-5.678c-0.085-1.776,0.309-2.849,1.731-4.715c1.57-2.06,1.762-2.679,1.298-4.196
			c-0.298-0.98-0.505-2.155-0.46-2.612c0.137-1.415-0.754-4.432-1.324-4.486c-0.298-0.027-1.157-0.751-1.908-1.61
			c-1.452-1.654-4.219-3.002-4.675-2.277c-0.396,0.633-3.978-0.688-5.543-2.042c-1.169-1.014-2.575-4.442-2.212-5.393
			c0.407-1.062,2.909-4.121,3.683-4.503c1.861-0.914,4.694-3.641,4.399-4.237c-0.161-0.332-0.95-0.439-1.752-0.239
			c-2.762,0.684-2.983,0.495-4.603-3.909l-1.485-4.05l-2.307-0.9c-1.268-0.495-3.062-0.856-3.987-0.805
			c-2.199,0.122-4.382-1.057-5.739-3.1c-2.351-3.534-1.462-5.87,3.934-10.349c2.049-1.698,2.883-2.72,2.718-3.325
			c-0.173-0.641-0.579-0.702-1.526-0.238c-1.143,0.563-1.26,0.51-1.023-0.474c0.234-0.977,0.169-1.012-0.568-0.308
			c-0.882,0.848-0.774,0.975-3.416-4.02c-1.047-1.979-3.472-3.856-5.488-4.248c-5.583-1.08-6.282-1.57-8.408-5.893
			c-1.68-3.416-5.689-14.297-7.876-21.374c-1.051-3.405-1.446-4.165-2.575-4.973c-1.563-1.116-4.74-6.364-3.799-6.272
			c0.339,0.032,0.926,0.627,1.305,1.319c0.476,0.871,0.625,0.955,0.482,0.267c-0.309-1.488-6.432-6.139-7.433-5.646
			c-0.667,0.327-1.005-0.012-1.798-1.792c-0.615-1.385-0.756-2.302-0.378-2.489c0.33-0.159,0.69-0.107,0.802,0.119
			c0.111,0.228,0.938-0.231,1.84-1.019c0.901-0.787,1.478-1.531,1.281-1.653c-0.562-0.354-4.416,1.684-4.819,2.544
			c-0.248,0.531-0.698,0.694-1.435,0.517c-1.292-0.311-9.624-4.786-12.08-6.49c-0.964-0.669-1.92-1.27-2.122-1.333
			c-1.91-0.604-10.626-7.049-15.773-11.665c-7.72-6.924-12.609-13.392-20.566-27.206c-9.921-17.226-21.968-31.824-34.587-41.915
			c-6.26-5.008-23.311-17.848-24.02-18.088c-0.195-0.066-1.337-0.843-2.536-1.723c-7.67-5.638-16.097-11.667-22.45-16.065
			c-1.899-1.314-5.754-4.065-8.568-6.113c-2.813-2.047-5.384-3.857-5.712-4.022c-0.33-0.165-3.217-2.221-6.416-4.569
			c-3.2-2.348-6.754-4.906-7.897-5.686c-7.292-4.969-45.39-33.795-49.643-37.561c-1.8-1.594-4.096-3.564-5.102-4.377
			c-8.658-6.995-23.206-22.16-32.724-34.112c-3.9-4.898-9.563-12.879-15.157-21.362c-5.986-9.076-20.298-38.27-22.649-46.196
			c-0.888-2.995-1.988-6.464-2.444-7.709c-0.458-1.246-1.457-4.585-2.222-7.418c-0.765-2.834-1.595-5.567-1.844-6.074
			c-0.5-1.017-0.455-1.082,0.847-1.2c1.037-0.094,2.108,1.648,1.162,1.89c-0.345,0.088-0.479,0.622-0.297,1.187
			c0.182,0.563,0.321,0.696,0.308,0.294c-0.013-0.402,0.208-0.845,0.489-0.984c0.289-0.142,0.381,0.268,0.211,0.936
			c-0.431,1.7-0.116,4.374,0.711,6.037c0.391,0.788,1.094,2.549,1.56,3.913c0.643,1.882,0.945,2.325,1.253,1.835
			c0.297-0.474,0.46-0.298,0.61,0.664c0.113,0.721,0.054,1.474-0.132,1.674c-0.185,0.2-0.186,0.668-0.002,1.042
			c0.184,0.373,0.082,0.801-0.226,0.953c-0.307,0.151-0.352,0.344-0.099,0.431c0.251,0.085,0.625-0.219,0.831-0.677
			c0.299-0.668,0.493-0.494,0.979,0.877c0.429,1.209,0.374,1.731-0.189,1.782c-0.438,0.039-0.688,0.293-0.554,0.563
			c0.132,0.27,0.307,0.948,0.387,1.506c0.119,0.825,0.175,0.838,0.299,0.069c0.083-0.522,0.296-0.895,0.474-0.828
			c0.178,0.067,2.078,3.401,4.224,7.412c2.145,4.01,3.323,6.505,2.617,5.545l-1.285-1.745l0.895,2.374
			c0.646,1.713,1.111,2.354,1.673,2.303c0.456-0.041,0.87,0.375,0.998,1.003c0.121,0.59,0.39,0.989,0.6,0.886
			c0.209-0.104,0.88,0.904,1.491,2.237c0.61,1.333,0.965,2.496,0.789,2.583c-0.177,0.086,0.26,0.812,0.97,1.611
			c0.71,0.799,1.268,1.697,1.238,1.997c-0.028,0.299,0.493,1.082,1.16,1.739c0.792,0.78,1.47,2.099,1.953,3.797
			c0.577,2.028,1.215,3.103,2.9,4.886c1.188,1.258,2.522,3.024,2.967,3.927c0.444,0.902,1.445,2.608,2.226,3.792
			c0.78,1.183,2.003,3.066,2.718,4.185c0.744,1.167,1.793,2.144,2.458,2.289c1.095,0.24,1.104,0.26,0.165,0.377
			c-0.834,0.104-0.842,0.232-0.049,0.802c0.52,0.373,1.408,1.534,1.974,2.581c0.567,1.047,1.236,1.802,1.486,1.679
			c0.251-0.124,0.561,0.288,0.688,0.914c0.128,0.625,0.748,1.59,1.378,2.144s1.225,1.26,1.322,1.57
			c0.098,0.31,1.232,1.659,2.521,2.999c1.29,1.34,3.008,3.41,3.821,4.601c0.812,1.19,2.067,2.676,2.79,3.301
			c0.721,0.626,2.581,2.518,4.131,4.207c4.332,4.714,5.483,5.87,6.138,6.16c0.333,0.148,0.901,0.871,1.263,1.608
			c0.363,0.736,0.901,1.22,1.196,1.075c0.367-0.18,0.459,0.061,0.291,0.763c-0.136,0.565-0.002,1.101,0.297,1.191
			c0.299,0.09,0.507-0.153,0.463-0.539c-0.158-1.38,0.589-0.995,1.523,0.786c0.523,0.995,1.63,2.211,2.46,2.702
			c1.285,0.759,1.443,1.013,1.062,1.697c-0.333,0.596-0.219,0.596,0.444,0.002c0.747-0.667,0.932-0.617,1.119,0.303
			c0.137,0.669,0.457,0.988,0.815,0.812c0.354-0.174,0.678,0.14,0.81,0.789c0.122,0.593,0.457,1.102,0.746,1.13
			c0.764,0.074,3.182,1.996,4.342,3.45c0.551,0.691,1.404,1.353,1.898,1.472c0.494,0.119,0.988,0.659,1.099,1.201
			c0.119,0.583,0.568,0.952,1.1,0.904c0.495-0.045,1.158,0.447,1.475,1.09c0.316,0.645,0.773,1.164,1.014,1.154
			c0.56-0.021,4.046,1.887,4.267,2.336c0.092,0.188,0.62,0.541,1.172,0.785c0.552,0.245,1.777,1.267,2.721,2.273
			c0.946,1.006,2.541,2.251,3.547,2.77c1.005,0.516,2.01,1.31,2.233,1.765c0.224,0.454,0.914,0.999,1.533,1.21
			c0.62,0.211,1.217,0.833,1.331,1.384c0.112,0.55,0.34,0.784,0.505,0.519c0.167-0.265,0.515-0.049,0.774,0.48
			c0.26,0.528,0.827,1,1.259,1.049c0.903,0.102,2.319,0.94,4.274,2.533c0.75,0.611,2.026,1.295,2.835,1.52
			c0.809,0.225,1.715,0.905,2.014,1.513c0.303,0.615,1.08,1.124,1.752,1.147c0.665,0.023,1.354,0.337,1.532,0.699
			c0.389,0.791,4.661,3.386,5.166,3.138c0.195-0.096,0.814,0.401,1.376,1.104c0.63,0.791,1.33,1.136,1.828,0.903
			c0.735-0.345,0.76-0.286,0.282,0.669c-0.289,0.576-0.392,1.319-0.228,1.651c0.229,0.465,0.388,0.399,0.696-0.289
			c0.493-1.098,1.38-0.656,1.508,0.75c0.07,0.774,0.239,0.845,0.741,0.303c0.514-0.555,0.79-0.416,1.319,0.661
			c0.368,0.749,1.125,1.47,1.681,1.604c0.555,0.132,1.144,0.516,1.309,0.851c0.165,0.334,0.684,0.573,1.153,0.53
			c0.468-0.043,1.006,0.234,1.194,0.616s0.953,1.15,1.701,1.708c0.747,0.558,1.635,1.278,1.973,1.604
			c0.337,0.323,0.955,0.821,1.373,1.106c2.042,1.39,2.949,2.176,3.274,2.837c0.195,0.397,0.528,0.64,0.738,0.536
			c0.476-0.233,4.492,2.852,4.965,3.813c0.19,0.388,0.562,0.6,0.825,0.47c0.264-0.13,0.69,0.195,0.95,0.721
			c0.258,0.526,0.685,0.851,0.949,0.722c0.263-0.13,0.637,0.087,0.831,0.481c0.194,0.395,0.541,0.625,0.771,0.512
			c0.23-0.114,0.875,0.39,1.434,1.118c0.559,0.727,2.226,1.874,3.704,2.546c1.479,0.673,2.786,1.422,2.904,1.665
			c0.119,0.241,1.216,0.891,2.437,1.443c1.222,0.552,2.877,1.752,3.679,2.666c0.802,0.915,2.739,2.354,4.302,3.201
			c1.565,0.846,2.978,1.809,3.14,2.138c0.162,0.329,0.474,0.512,0.692,0.404c0.218-0.107,1.471,0.681,2.785,1.75
			c1.314,1.07,2.647,1.988,2.964,2.041c0.317,0.054,0.549,0.372,0.516,0.707c-0.033,0.334,0.556,0.786,1.307,1
			c0.752,0.215,1.542,0.747,1.756,1.184c0.214,0.436,0.973,1.023,1.687,1.307c0.713,0.283,1.828,0.921,2.476,1.419
			c0.648,0.497,1.528,1.135,1.955,1.416c0.426,0.28,1.751,1.232,2.944,2.116c1.194,0.885,2.822,2.088,3.619,2.677
			c0.797,0.59,1.645,1.062,1.886,1.054c0.24-0.01,0.566,0.245,0.723,0.565c0.41,0.833,2.685,2.6,3.095,2.404
			c0.191-0.091,0.382,0.222,0.424,0.694c0.054,0.603,0.256,0.666,0.675,0.215c0.455-0.491,0.653-0.371,0.832,0.504
			c0.144,0.705,0.784,1.384,1.657,1.758c2.337,0.997,4.676,2.826,4.602,3.595c-0.043,0.444,0.076,0.485,0.315,0.106
			c0.24-0.383,0.556-0.266,0.841,0.317c0.252,0.512,1.083,1.388,1.846,1.948c0.764,0.561,1.603,1.452,1.864,1.979
			c0.262,0.528,1.003,1.014,1.647,1.08c0.644,0.064,1.621,0.647,2.171,1.297c0.549,0.648,1.302,1.208,1.672,1.243
			c0.369,0.037,1.065,0.766,1.546,1.623c1.207,2.15,3.282,4.775,4.877,6.17c0.735,0.643,2.043,2.483,2.907,4.092
			c0.864,1.604,1.806,2.942,2.092,2.972c0.288,0.027,0.651,0.643,0.805,1.366c0.209,0.979,0.418,1.171,0.811,0.748
			c0.374-0.405,0.767-0.124,1.35,0.962c1.166,2.174,6.944,11.497,9.156,14.775c1.163,1.721,1.842,3.162,1.807,3.832
			c-0.037,0.68,0.139,1.049,0.476,1.003c0.293-0.04,0.814,0.721,1.158,1.691c0.343,0.969,0.836,1.658,1.094,1.531
			c0.256-0.126,1.012,0.772,1.677,1.996c2.105,3.877,2.62,4.5,3.519,4.256c0.961-0.261,1.46,0.307,0.962,1.1
			c-0.329,0.527-0.2,0.7,1.949,2.625c0.707,0.631,1.484,1.453,1.726,1.823c0.404,0.617,5.616,5.03,7.651,6.479
			c0.471,0.335,1.009,0.916,1.194,1.294c0.185,0.375,0.533,0.678,0.773,0.667c0.241-0.009,2.49,1.513,4.999,3.385
			c2.509,1.871,4.853,3.512,5.209,3.646c0.356,0.136,0.867,0.688,1.133,1.233c0.267,0.542,1.429,1.187,2.583,1.433
			c2.898,0.619,5.878,1.629,6.422,2.18c0.6,0.608,8.75-1.303,11.267-2.64c4.945-2.626,9.441-3.607,11.093-2.424
			c0.561,0.404,1.165,0.502,1.343,0.221c0.176-0.282,0.058-0.678-0.264-0.88c-0.399-0.251-0.231-0.384,0.526-0.422
			c1.441-0.071,9.587-4.352,9.656-5.075c0.086-0.888,9.294-5.069,11.637-5.286c1.338-0.122,11.883-5.019,11.427-5.303
			c-0.225-0.142-1.111-2.442-1.972-5.113c-1.293-4.01-3.428-8.548-5.896-12.526c-0.234-0.375-1.526-2.947-2.87-5.715
			c-1.346-2.771-3.801-7.779-5.457-11.131c-1.656-3.353-2.981-6.393-2.945-6.759c0.034-0.366-0.489-0.884-1.164-1.153
			c-0.849-0.335-1.112-0.67-0.857-1.076c0.27-0.434,0.128-0.702-0.521-0.992c-0.684-0.308-0.837-0.634-0.652-1.403
			c0.142-0.588-0.082-1.273-0.543-1.664c-0.43-0.363-0.834-0.886-0.898-1.162c-0.117-0.512-2.727-5.845-9.354-19.118
			c-2.078-4.161-3.718-7.741-3.644-7.957c0.073-0.215-0.276-0.575-0.776-0.8c-0.722-0.322-0.792-0.578-0.343-1.229
			c0.37-0.537,0.288-1.201-0.237-1.911c-0.443-0.598-0.788-1.934-0.766-2.968c0.037-1.844,0.021-1.865-0.871-1.096
			c-0.671,0.582-0.927,0.575-0.981-0.026c-0.044-0.482-0.367-0.667-0.793-0.458c-0.595,0.293-0.711,0.122-0.673-0.987
			c0.044-1.272-0.167-1.982-1.555-5.246c-0.371-0.874-0.332-1.427,0.105-1.485c0.624-0.084,0.831-2.843,0.297-3.93
			c-0.443-0.902-1.183,0.131-1.056,1.479c0.241,2.561-0.678,1.909-1.607-1.141c-1.253-4.118-8.679-17.883-11.463-21.248
			c-3.64-4.404-9.099-13.077-12.135-19.283c-3.578-7.315-4.076-10.319-2.244-13.55c0.699-1.235,1.67-2.521,2.157-2.861
			c0.614-0.428,0.72-1.08,0.345-2.133c-1.249-3.496-9.922-14.339-16.203-20.253c-2.167-2.04-4.96-4.676-6.21-5.858
			c-1.249-1.184-2.738-2.456-3.31-2.829c-0.571-0.372-1.803-1.504-2.738-2.516c-0.934-1.011-1.985-1.985-2.335-2.166
			c-0.35-0.18-1.841-1.453-3.312-2.827c-1.471-1.375-5.068-4.397-7.995-6.717c-4.708-3.731-7.775-6.252-10.627-8.736
			c-0.479-0.417-2.43-1.999-4.333-3.513c-1.905-1.515-5.106-4.218-7.114-6.008c-3.958-3.524-6.323-5.521-11.465-9.674
			c-1.829-1.478-3.371-2.78-3.428-2.896c-0.057-0.116-1.612-1.417-3.456-2.892c-6.659-5.33-13.776-11.293-16.216-13.587
			c-1.37-1.287-3.825-3.555-5.458-5.04c-6.186-5.623-7.078-6.525-7.694-7.776c-0.597-1.215-5.009-5.301-10.388-9.622
			c-1.98-1.589-2.627-1.828-3.626-1.336c-0.729,0.358-1.498,0.32-1.919-0.096c-0.387-0.382-2.079-1.889-3.759-3.35
			c-1.682-1.461-3.597-3.125-4.258-3.699c-0.66-0.574-1.471-0.911-1.801-0.749c-0.331,0.163-0.817-0.142-1.08-0.677
			c-0.263-0.535-1.547-1.776-2.852-2.759c-1.677-1.26-2.472-2.216-2.707-3.253c-0.547-2.421-0.162-3.071,2.547-4.294
			c1.789-0.808,3.408-2.099,5.596-4.46c1.692-1.828,4.093-4.25,5.333-5.381c3.936-3.591,27.723-17.953,33.455-20.198
			c1.911-0.749,3.426-1.459,3.366-1.581c-0.059-0.12-2.036-1.968-4.394-4.105c-4.2-3.806-5.452-5.206-4.184-4.674
			c0.559,0.233,4.319,3.424,8.81,7.472l1.671,1.507l0.456-1.513c0.593-1.965,1.299-2.263,3.453-1.454
			c1.604,0.604,2.004,0.519,4.362-0.925c1.786-1.094,2.757-1.447,3.111-1.132c0.282,0.253,0.346,0.074,0.141-0.397
			c-0.475-1.087-0.045-1.298,1.286-0.632c0.971,0.486,1.01,0.444,0.534-0.559c-0.283-0.596-0.299-1.191-0.036-1.32
			c0.262-0.129,0.637,0.087,0.831,0.483c0.194,0.395,0.569,0.612,0.832,0.482s0.248-0.723-0.036-1.32
			c-0.477-1.003-0.437-1.044,0.534-0.559c1.321,0.663,1.772,0.454,1.262-0.585c-0.347-0.705-0.25-0.734,0.761-0.225
			c1.048,0.526,1.121,0.502,0.763-0.262c-0.444-0.947,0.192-1.482,1.092-0.919c0.41,0.257,0.62,0.109,0.697-0.491
			c0.086-0.693,0.333-0.747,1.272-0.279c1.017,0.507,1.115,0.478,0.768-0.229c-0.502-1.021,0.372-1.496,1.253-0.679
			c0.51,0.472,0.681,0.431,0.74-0.177c0.062-0.638,0.284-0.742,1.138-0.537c0.711,0.171,0.976,0.078,0.799-0.282
			c-0.146-0.295-0.049-0.643,0.214-0.772c0.263-0.129,0.658,0.129,0.876,0.574c0.347,0.704,0.427,0.645,0.625-0.457
			c0.222-1.23,0.257-1.238,1.297-0.306c0.75,0.673,0.955,0.706,0.688,0.108c-0.21-0.469-0.059-1.011,0.335-1.205
			c0.395-0.195,0.929,0.01,1.185,0.457c0.445,0.771,0.458,0.765,0.274-0.135c-0.266-1.306,0.41-1.502,1.468-0.425l0.885,0.902
			l-0.328-1.21c-0.318-1.176,0.723-1.909,1.234-0.87c0.14,0.285,0.495,0.6,0.79,0.7c0.293,0.101,0.359-0.176,0.144-0.614
			c-0.216-0.439-0.178-0.903,0.086-1.033c0.263-0.129,0.637,0.087,0.831,0.482c0.195,0.395,0.568,0.612,0.832,0.483
			c0.263-0.129,0.319-0.559,0.125-0.953c-0.194-0.395-0.138-0.824,0.125-0.953c0.264-0.13,0.724,0.247,1.023,0.834
			c0.504,0.99,0.562,0.983,0.768-0.081c0.283-1.453,0.724-1.679,1.236-0.638c0.312,0.633,0.465,0.624,0.692-0.042
			c0.41-1.204,0.989-1.373,1.455-0.423c0.348,0.706,0.43,0.645,0.644-0.466c0.209-1.081,0.307-1.156,0.648-0.495
			c0.22,0.428,0.772,0.745,1.225,0.704c0.551-0.05,0.623-0.261,0.218-0.637c-0.742-0.687,0.14-1.23,0.945-0.583
			c0.458,0.368,0.569,0.313,0.558-0.275c-0.021-1.029,0.788-1.315,1.223-0.432c0.288,0.586,0.504,0.537,1.066-0.248
			c0.563-0.785,0.778-0.834,1.066-0.249c0.198,0.405,0.577,0.629,0.839,0.5c0.264-0.129,0.373-0.451,0.243-0.714
			c-0.418-0.852,0.708-0.977,1.172-0.131c0.269,0.489,0.428,0.53,0.397,0.101c-0.029-0.393,0.245-0.862,0.609-1.042
			c0.393-0.193,0.695,0.021,0.74,0.527c0.106,1.166,0.743,0.759,1.016-0.648c0.206-1.055,0.272-1.054,0.815,0.016
			c0.46,0.906,0.656,0.974,0.884,0.308c0.41-1.204,0.988-1.373,1.455-0.424c0.356,0.724,0.419,0.683,0.608-0.389
			c0.146-0.832,0.399-1.081,0.823-0.815c0.336,0.21,0.584,0.664,0.551,1.007c-0.033,0.343,0.167,0.512,0.446,0.375
			c0.278-0.137,0.4-0.465,0.271-0.728c-0.129-0.264-0.02-0.585,0.244-0.714c0.263-0.13,0.637,0.088,0.831,0.482
			s0.568,0.612,0.831,0.482c0.264-0.129,0.374-0.45,0.243-0.714c-0.129-0.263-0.02-0.583,0.244-0.713
			c0.262-0.129,0.658,0.128,0.877,0.574c0.355,0.724,0.419,0.683,0.609-0.39c0.146-0.83,0.399-1.082,0.822-0.814
			c0.335,0.21,0.583,0.664,0.551,1.007c-0.034,0.343,0.145,0.523,0.395,0.4c0.25-0.124,0.418-0.625,0.374-1.114
			c-0.043-0.489,0.207-0.861,0.559-0.828c0.351,0.034,0.612,0.323,0.582,0.644c-0.03,0.318,0.16,0.475,0.422,0.345
			s0.507-0.533,0.543-0.896c0.041-0.419,0.462-0.461,1.145-0.119c0.645,0.323,0.971,0.297,0.805-0.062
			c-0.472-1.023,0.646-1.139,1.148-0.119c0.258,0.526,0.686,0.851,0.949,0.721c0.263-0.129,0.319-0.558,0.125-0.952
			c-0.194-0.395-0.137-0.824,0.125-0.953c0.263-0.129,0.637,0.088,0.833,0.482c0.467,0.953,0.913,0.677,1.188-0.733
			c0.203-1.045,0.284-1.031,0.886,0.159c0.365,0.719,0.878,1.202,1.142,1.072c0.263-0.129,0.266-0.666,0.007-1.192
			c-0.259-0.526-0.232-1.074,0.06-1.217c0.326-0.161,0.641,0.255,0.817,1.083c0.164,0.762,0.496,1.242,0.767,1.108
			c0.534-0.263,0.308-1.351-1.107-5.301c-1.475-4.119-0.953-7.946,1.23-9.019c1.404-0.69,3.5-0.109,4.115,1.143
			c0.217,0.44,0.617,0.69,0.891,0.555c0.318-0.157-0.158-1.366-1.325-3.359c-2.567-4.385-7.088-13.292-6.953-13.693
			c0.144-0.42,6.428,10.919,9.387,16.938c2.001,4.069,2.281,4.437,2.92,3.825c1.239-1.185,4.904-3.953,8.123-6.136
			c1.716-1.163,4.194-2.921,5.505-3.908c1.313-0.986,4.911-3.184,7.996-4.884c6.153-3.391,13.893-6.082,17.439-6.061
			c1.443,0.008,2.554-0.379,4.155-1.447c1.834-1.226,2.413-1.379,3.632-0.964c0.796,0.272,1.739,1.087,2.093,1.811
			c0.354,0.725,0.978,5.966,1.387,11.646c0.683,9.485,0.646,10.393-0.451,11.101c-0.999,0.646-1.139,1.298-0.856,3.985
			c0.184,1.769,0.368,4.001,0.406,4.963c0.113,2.798,1.083,8.722,1.894,11.546c1.097,3.832,2.257,10.148,1.935,10.535
			c-0.155,0.185-0.097,0.711,0.128,1.169c0.532,1.08,1.265,7.784,3.492,31.906c0.434,4.688,1.091,10.915,1.46,13.838
			c0.37,2.922,0.777,7.133,0.906,9.358c0.128,2.224,0.501,5.316,0.825,6.871c0.328,1.555,0.421,2.913,0.207,3.018
			c-0.213,0.104-0.258,0.454-0.099,0.777c0.323,0.658,1.024,8.875,1.257,14.742c0.084,2.109,0.237,4.006,0.339,4.214
			c0.104,0.21,0.259,1.851,0.346,3.646c0.27,5.596,1.733,20.078,2.479,24.529c1.042,6.212,2.99,13.598,4.542,17.213
			c1.356,3.162,1.357,3.163,2.952,2.785c6.178-1.462,9.015,1.348,13.329,13.202c8.947,24.588,9.527,25.909,16.98,38.688
			c0.592,1.016,2.585,3.512,4.431,5.546c1.99,2.192,4.31,5.404,5.7,7.891l2.346,4.193l-2.19-2.907
			c-1.207-1.6-2.412-2.983-2.679-3.075c-0.267-0.092,0.784,2.294,2.335,5.301c1.552,3.007,2.912,5.323,3.023,5.149
			c0.113-0.174,0.365,0.261,0.559,0.969c0.194,0.708,0.095,1.262-0.218,1.23c-0.32-0.03-0.09,0.774,0.521,1.829
			c0.656,1.131,1.333,1.768,1.692,1.593c0.905-0.445,1.272,0.78,0.571,1.91c-0.812,1.307-0.157,3.651,1.146,4.094
			c0.87,0.296,0.982,0.565,0.812,1.944c-0.109,0.88-0.389,1.693-0.622,1.808c-0.23,0.114-0.264,0.532-0.07,0.926
			c0.194,0.396,0.014,0.885-0.4,1.088c-0.523,0.257-0.925-0.043-1.313-0.987c-1.099-2.662-1.393-2.935-2.315-2.139
			c-0.7,0.604-0.692,0.992,0.032,1.938c0.499,0.649,0.84,1.382,0.755,1.628c-0.255,0.746,0.959,3.133,1.64,3.225
			c0.413,0.056,0.553,0.442,0.396,1.094c-0.196,0.821-0.037,1.021,0.869,1.085c0.61,0.042,0.869,0.205,0.576,0.359
			c-0.847,0.444,0.046,2.791,1.213,3.188c0.61,0.209,1.015,0.691,0.97,1.155c-0.057,0.595-0.285,0.608-0.895,0.051
			c-0.749-0.684-0.784-0.673-0.424,0.139c0.216,0.487,0.848,1.211,1.403,1.609c0.555,0.398,0.739,0.698,0.408,0.666
			c-0.761-0.073,2.992,6.526,3.911,6.877c0.758,0.292,1.455-1.403,1.059-2.574c-0.523-1.546-0.981-1.894-1.902-1.44
			c-0.621,0.306-0.967,0.186-1.017-0.355c-0.04-0.449,0.289-0.85,0.731-0.89c0.941-0.086,0.728-0.688-0.725-2.041
			c-0.817-0.763-0.963-1.334-0.677-2.676c0.435-2.05,0.898-2.363,1.857-1.253c0.733,0.847,1.964,0.718,1.533-0.158
			c-0.13-0.264-0.02-0.585,0.242-0.714c0.688-0.339,1.236,1.021,0.664,1.655c-0.383,0.429-0.354,0.484,0.139,0.28
			c0.34-0.141,0.734-0.019,0.878,0.272c0.143,0.292-0.125,0.565-0.593,0.608c-1.177,0.108-0.587,1.091,0.811,1.348
			c1.078,0.198,1.11,0.277,0.546,1.412c-0.329,0.666-0.325,1.079,0.009,0.923c0.78-0.359,1.541,1.181,1.15,2.331
			c-0.217,0.634-0.105,0.907,0.395,0.965c1.164,0.13,2.484,1.858,2.229,2.917c-0.129,0.538-0.023,0.876,0.233,0.75
			c0.684-0.335,5.722,7.819,10.346,16.746c1.382,2.669,2.688,4.769,2.899,4.663c0.213-0.104,0.359,0.109,0.323,0.474
			c-0.034,0.365,0.595,2.238,1.398,4.166c1.052,2.512,1.693,3.528,2.27,3.59c0.518,0.056,0.612,0.188,0.269,0.362
			c-0.571,0.291,0.473,2.385,1.705,3.418c0.403,0.339,0.862,1.048,1.02,1.575c0.265,0.897,0.793,0.725,7.88-2.594
			c4.317-2.02,8.271-4.154,9.156-4.942c1.262-1.127,1.722-1.303,2.438-0.935c0.485,0.25,1.13,0.334,1.429,0.187
			c0.3-0.147,0.655-0.041,0.793,0.237c0.138,0.276,0.458-0.295,0.711-1.274c0.591-2.276,4.335-4.697,7.924-5.12
			c1.311-0.154,2.925-0.657,3.586-1.119c6.646-4.623,8.09-5.723,8.134-6.189c0.029-0.299,0.296-0.521,0.59-0.49
			c0.297,0.028,0.565-0.233,0.601-0.583c0.033-0.349,0.596-0.896,1.252-1.22c1.643-0.807,3.335-3.202,4.272-6.041
			c0.431-1.313,1.18-2.581,1.661-2.816c1.14-0.562,1.291-1.314,1.394-6.924c0.045-2.58,0.159-5.02,0.251-5.42
			c0.359-1.56,0.365-13.49,0.01-16.691c-0.446-4.021-2.846-11.999-4.855-16.135c-0.791-1.629-1.496-3.155-1.564-3.39
			c-0.069-0.235-0.273-0.622-0.453-0.859c-0.971-1.274-6.772-13.69-6.709-14.354c0.041-0.43-0.034-1.133-0.172-1.562
			c-0.617-1.953-1.962-6.53-2.061-7.018c-0.217-1.078-0.846-1.725-1.172-1.205c-0.182,0.291-0.434,0.326-0.557,0.075
			c-0.123-0.25,0.01-0.706,0.293-1.014c0.3-0.323,0.14-1.408-0.38-2.582c-0.495-1.113-0.899-2.479-0.897-3.033
			c0.002-0.555-0.361-2.433-0.809-4.173c-0.446-1.742-0.8-3.637-0.784-4.211c0.017-0.575-0.211-1.534-0.502-2.13
			c-0.291-0.597-0.512-1.779-0.492-2.628c0.021-0.849-0.116-2.252-0.303-3.119c-0.421-1.947-0.57-4.636-0.498-8.924
			c0.029-1.811-0.143-4.068-0.384-5.014c-0.261-1.031-0.169-1.695,0.231-1.656c0.368,0.036,0.427-0.087,0.13-0.273
			c-0.512-0.322-1.176-4.907-0.827-5.71c0.382-0.872,0.527-4.94,0.285-7.863c-0.144-1.727-0.301-4.809-0.351-6.85
			c-0.05-2.041-0.208-3.968-0.351-4.282c-0.146-0.314-0.153-1.146-0.018-1.847c0.135-0.699,0.054-1.664-0.181-2.139
			c-0.233-0.476-0.263-0.946-0.066-1.043c0.198-0.097,0.328-1.831,0.289-3.855c-0.04-2.022,0.081-3.938,0.266-4.257
			c0.208-0.357-0.039-0.544-0.643-0.491c-1.27,0.116-1.706-0.76-0.537-1.08c0.659-0.18,0.897-1.355,0.893-4.406
			c-0.003-2.289,0.086-4.339,0.199-4.558c0.11-0.217,0.216-1.605,0.231-3.084c0.017-1.479,0.065-3.374,0.108-4.211
			c0.043-0.838-0.104-1.902-0.327-2.365c-0.223-0.461-0.242-0.92-0.043-1.018s0.317-1.026,0.264-2.061
			c-0.053-1.036,0.062-3.11,0.256-4.61c0.192-1.5,0.21-3.014,0.037-3.363c-0.171-0.349-0.128-1.045,0.097-1.546
			c0.224-0.501,0.159-1.143-0.146-1.426c-0.306-0.283-0.396-0.77-0.2-1.082c0.197-0.312,0.151-0.984-0.101-1.495
			c-0.251-0.512-0.188-1.062,0.141-1.227c0.775-0.386,1.201-3.81,0.825-6.641c-0.162-1.227-0.111-3.9,0.112-5.94
			c0.226-2.04,0.288-3.955,0.139-4.257c-0.375-0.765-0.404-3.679-0.037-3.864c0.165-0.084,0.19-1.638,0.059-3.45
			c-0.135-1.813-0.104-3.718,0.066-4.234c0.17-0.516,0.179-1.203,0.02-1.527c-0.16-0.325-0.111-1.585,0.108-2.8
			c0.219-1.215,0.155-2.706-0.144-3.313c-0.299-0.606-0.341-1.202-0.094-1.324c0.513-0.252,0.589-8.53,0.088-9.583
			c-0.183-0.381-0.154-1.957,0.061-3.501c0.214-1.544,0.279-3.046,0.144-3.338c-0.137-0.292-0.104-1.244,0.07-2.112
			c0.175-0.871,0.029-1.918-0.325-2.328c-0.375-0.433-0.398-1.565-0.057-2.705c0.323-1.079,0.503-2.454,0.4-3.057
			c-0.357-2.093-0.563-10.426-0.301-12.125c0.146-0.938,0.062-2.115-0.183-2.613c-0.245-0.499-0.313-1.293-0.153-1.764
			c0.205-0.602,0.131-0.777-0.245-0.592c-0.358,0.176-0.534-0.333-0.527-1.523c0.007-0.983,0.174-1.868,0.373-1.966
			c0.571-0.281-0.174-3.93-1.021-4.994c-0.615-0.772-0.594-0.869,0.101-0.494c0.765,0.411,0.825,0.38,0.511-0.274
			c-0.194-0.407-0.34-1.796-0.32-3.087c0.038-2.695-0.562-4.21-1.847-4.66c-0.724-0.252-0.599-0.379,0.64-0.648
			c1.395-0.304,1.458-0.415,0.696-1.208c-0.588-0.614-0.63-0.926-0.138-1.052c0.384-0.1,0.479-0.459,0.209-0.798
			c-0.27-0.34-0.51-1.158-0.532-1.818c-0.021-0.661-0.301-2.677-0.618-4.48c-0.32-1.805-0.57-3.75-0.558-4.323
			c0.03-1.45-0.101-1.59-1.065-1.137c-0.783,0.368-0.805,0.317-0.292-0.704c0.391-0.775,0.302-1.363-0.298-1.989
			c-0.521-0.543-0.613-0.864-0.238-0.828c0.342,0.033,0.335-0.848-0.019-1.995c-0.349-1.13-0.441-2.15-0.205-2.266
			c0.235-0.115,0.106-0.583-0.287-1.038c-0.394-0.455-0.738-1.289-0.767-1.852c-0.027-0.563-0.344-1.496-0.701-2.073
			c-0.359-0.577-0.566-1.74-0.463-2.584c0.133-1.064-0.218-2.194-1.135-3.675c-1.512-2.443-1.667-3.965-0.248-2.449
			c0.58,0.62,0.449,0.262-0.337-0.92c-1.013-1.522-1.173-2.151-0.748-2.958c0.605-1.159-0.448-2.174-1.302-1.252
			c-0.759,0.817-0.934,0.212-0.304-1.044c0.307-0.613,0.276-0.933-0.07-0.773c-0.326,0.15-1.244-0.209-2.041-0.798
			c-1.293-0.956-1.369-1.109-0.718-1.43c0.4-0.197,0.624-0.574,0.494-0.837c-0.13-0.264,0.006-0.598,0.303-0.743
			c0.386-0.19,0.472,0.003,0.309,0.686c-0.156,0.65-0.021,0.971,0.426,1.015c1.097,0.106,1.368-0.948,0.506-1.965
			c-0.449-0.53-0.875-1.93-0.946-3.11c-0.073-1.181-0.356-2.617-0.629-3.192c-1.717-3.61-2.832-6.535-2.757-7.223
			c0.049-0.438-0.551-2.014-1.334-3.502c-0.78-1.489-1.437-2.833-1.457-2.986c-0.033-0.265-7.214-15.946-7.993-17.459
			c-0.2-0.391-1.062-1.804-1.912-3.141c-0.988-1.557-1.528-2.933-1.498-3.828c0.029-0.818-0.285-1.68-0.758-2.081
			c-0.444-0.376-0.852-0.928-0.907-1.229c-0.233-1.256-1.656-4.235-1.952-4.09c-0.177,0.087-1.078-1.476-1.998-3.472
			c-0.924-1.998-1.822-3.561-1.997-3.476c-0.173,0.086-0.821-1.179-1.439-2.811c-0.616-1.631-1.244-2.771-1.395-2.533
			c-0.15,0.239-0.594-0.352-0.987-1.312c-0.44-1.069-1.19-1.933-1.937-2.229c-0.812-0.324-1.19-0.786-1.132-1.39
			c0.057-0.579-0.183-0.937-0.667-0.995c-0.563-0.067-0.634-0.301-0.273-0.921c0.43-0.739,0.377-0.845-0.47-0.957
			c-0.734-0.097-0.86-0.28-0.55-0.801c0.316-0.527-0.133-1.258-2.035-3.307c-1.342-1.446-3.704-4.147-5.247-6.003
			c-3.058-3.675-4.94-5.59-6.989-7.108c-0.73-0.541-1.162-1.062-0.964-1.161c0.199-0.097-0.022-0.309-0.494-0.47
			c-0.471-0.16-1.093-0.771-1.381-1.357c-0.289-0.587-1.026-1.238-1.64-1.447c-0.614-0.209-1.088-0.675-1.054-1.036
			c0.035-0.361-0.351-0.841-0.856-1.068c-0.507-0.227-0.775-0.484-0.597-0.573c0.18-0.087-0.386-0.679-1.252-1.314
			c-2.911-2.13-3.214-2.41-3.702-3.405c-0.309-0.628-0.629-0.767-0.873-0.378c-0.246,0.392-0.356,0.338-0.31-0.153
			c0.043-0.45-0.582-1.013-1.516-1.364c-1.128-0.424-1.476-0.778-1.193-1.225c0.293-0.468,0.179-0.647-0.454-0.709
			c-0.465-0.046-0.942-0.245-1.061-0.444c-0.576-0.977-3.611-3.148-4.077-2.918c-0.292,0.144-0.501-0.051-0.465-0.433
			c0.038-0.381-0.199-0.733-0.526-0.78c-0.858-0.125-5.873-3.09-6.138-3.629c-0.123-0.25-0.439-0.348-0.702-0.219
			s-0.69-0.195-0.949-0.722c-0.259-0.525-0.687-0.85-0.948-0.721c-0.264,0.129-0.638-0.088-0.832-0.482
			c-0.194-0.396-0.568-0.612-0.83-0.483c-0.263,0.13-0.624-0.059-0.803-0.419c-0.176-0.361-1.67-1.297-3.319-2.081
			c-1.648-0.784-3.383-1.831-3.853-2.327c-0.471-0.495-2.124-1.614-3.677-2.485c-1.553-0.87-2.873-1.685-2.935-1.809
			c-0.062-0.125-0.938-0.543-1.948-0.931c-2.855-1.096-6.778-3.526-7.255-4.493c-0.236-0.482-0.76-0.713-1.162-0.516
			c-0.403,0.198-1.049,0.068-1.434-0.288c-0.386-0.358-1.287-0.85-2.005-1.094c-0.717-0.245-1.512-0.869-1.768-1.387
			c-0.277-0.565-0.66-0.729-0.956-0.409c-0.272,0.294-1.251,0.035-2.183-0.579c-0.93-0.612-2.839-1.482-4.245-1.935
			c-1.406-0.453-3.285-1.266-4.176-1.808c-0.891-0.543-1.979-1.024-2.417-1.069c-0.439-0.046-0.944-0.377-1.12-0.737
			c-0.177-0.359-0.519-0.646-0.758-0.638c-0.802,0.033-4.096-1.984-4.463-2.731c-0.2-0.406-0.7-0.572-1.112-0.369
			c-0.549,0.27-0.811,0.04-0.978-0.856c-0.179-0.97-0.26-1.023-0.386-0.255c-0.137,0.83-0.382,0.863-1.691,0.237
			c-0.841-0.403-1.616-0.891-1.718-1.086c-0.103-0.194-0.51-0.194-0.905,0c-0.692,0.34-1.18-0.084-1.636-1.424
			c-0.123-0.361-0.731-0.383-1.405-0.051c-1.433,0.705-2.466,0.225-1.435-0.666c0.489-0.421,0.311-0.449-0.528-0.082
			c-0.831,0.363-2.2,0.158-4.008-0.6c-1.509-0.634-2.835-1.337-2.948-1.563c-0.332-0.677-2.187-1.133-2.994-0.737
			c-0.672,0.331-1.231-0.074-1.57-1.137c-0.064-0.202-0.378-0.085-0.696,0.257c-0.317,0.342-0.694,0.385-0.837,0.093
			c-0.143-0.291-0.53-0.398-0.858-0.238c-0.331,0.161-1.605-0.014-2.834-0.389c-1.228-0.375-2.414-0.593-2.634-0.484
			c-0.222,0.108-1.104-0.264-1.964-0.827c-0.86-0.563-1.688-0.826-1.84-0.585c-0.151,0.242-0.557,0.179-0.901-0.14
			c-0.345-0.32-1.063-0.365-1.598-0.103s-1.102,0.215-1.259-0.105c-0.302-0.616-4.427-1.848-5.094-1.522
			c-0.216,0.105-1.363,0.001-2.549-0.233c-1.185-0.234-2.39-0.311-2.674-0.17c-0.285,0.14-0.942,0.113-1.459-0.06
			c-1.833-0.615-7.041-0.486-12.357,0.306c-7.086,1.056-8.775,0.305-2.309-1.027c3.146-0.648,4.228-1.61,2.62-2.33
			c-0.544-0.245-1.095-0.274-1.225-0.067c-0.524,0.835-9.019,2.929-9.949,2.452c-0.528-0.271-2.129-0.266-3.558,0.012
			c-2.382,0.463-5.549,0.817-10.021,1.117l-1.725,0.116l0.861-1.066c0.633-0.783,1.18-1.034,2.061-0.944
			c0.729,0.075,1.107-0.068,0.963-0.36c-0.13-0.266-0.508-0.354-0.839-0.196c-0.433,0.207-0.474,0.078-0.146-0.459
			c0.282-0.459-0.326-0.244-1.583,0.561c-1.123,0.718-2.555,1.277-3.183,1.243c-1.069-0.059-1.08-0.132-0.181-1.131
			c0.991-1.101,0.608-0.991-4.508,1.296c-1.766,0.791-2.241,0.164-0.518-0.683c2.169-1.067,0.825-1.491-1.587-0.5
			c-1.01,0.416-2.082,0.528-2.381,0.251c-0.298-0.278-0.873-0.341-1.276-0.144c-0.452,0.222-0.946-0.074-1.291-0.774
			c-0.508-1.033-0.84-1.037-3.729-0.033c-1.745,0.606-4.257,1.552-5.584,2.103c-1.481,0.615-3.925,0.995-6.331,0.984
			c-2.154-0.009-4.473,0.23-5.151,0.533c-3.234,1.442-8.982,2.745-10.231,2.319c-0.742-0.253-1.946-0.177-2.674,0.168
			c-0.729,0.345-3.1,1.096-5.27,1.667c-2.169,0.572-4.511,1.247-5.204,1.5c-0.693,0.255-2.309,0.65-3.595,0.882
			c-1.285,0.231-3.964,1.165-5.953,2.078c-1.99,0.912-3.68,1.535-3.756,1.385c-0.221-0.429-6.199,2.876-9.482,5.244
			c-2.46,1.773-3.405,2.203-5.421,2.466c-1.952,0.254-2.998,0.716-5.228,2.306c-1.533,1.094-9.97,5.595-18.75,10.005
			c-10.798,5.423-16.463,8.495-17.514,9.498c-0.854,0.815-1.932,1.517-2.396,1.559c-0.463,0.042-1.173,0.538-1.578,1.101
			c-0.405,0.564-1.894,1.709-3.311,2.546c-3.759,2.22-4.29,2.608-5.064,3.704c-0.386,0.545-1.453,1.365-2.374,1.819
			c-0.919,0.456-2.65,1.83-3.846,3.054c-1.195,1.224-3.823,3.761-5.84,5.64c-2.018,1.877-4.756,4.466-6.084,5.751
			c-1.329,1.286-3.371,2.976-4.539,3.757c-1.167,0.782-2.049,1.571-1.958,1.756c0.09,0.185-0.609,0.753-1.555,1.264
			c-0.986,0.532-2.21,1.808-2.869,2.992c-0.631,1.135-1.609,2.291-2.171,2.567c-0.562,0.276-1.05,0.787-1.084,1.136
			c-0.073,0.753-2.474,3.584-3.448,4.063c-0.376,0.184-1.706,2.107-2.953,4.273c-1.249,2.166-2.44,4.2-2.648,4.52
			c-0.6,0.923-5.442,6.892-6.517,8.034c-0.537,0.57-1.255,1.411-1.598,1.869c-0.344,0.457-0.854,0.943-1.134,1.081
			c-0.281,0.139-1.271,1.179-2.199,2.311c-0.928,1.132-2.082,2.292-2.564,2.576c-0.639,0.376-0.691,0.814-0.192,1.607
			c0.441,0.698,0.44,1.452-0.003,2.103c-0.38,0.558-0.733,1.198-0.786,1.423c-0.053,0.225-0.662,1.162-1.353,2.082
			c-0.692,0.92-1.284,2.051-1.319,2.514c-0.034,0.463-0.358,0.987-0.721,1.165c-0.363,0.179-0.806,0.747-0.984,1.262
			c-0.47,1.361-2.644,4.087-3.654,4.584c-1.403,0.69-3.364,3.93-4.395,7.258c-0.526,1.703-1.243,3.236-1.593,3.409
			s-0.976,1.349-1.392,2.616c-0.995,3.032-3.254,7.985-3.755,8.233c-0.217,0.108-0.507,1.058-0.644,2.11
			c-0.136,1.051-0.71,2.467-1.274,3.146c-0.565,0.679-0.883,1.528-0.707,1.886c0.177,0.359-0.013,0.683-0.42,0.72
			c-0.434,0.04-0.712,0.787-0.671,1.797c0.038,0.952-0.219,2.032-0.571,2.4c-0.674,0.703-3.667,9.617-3.408,10.146
			c0.083,0.168-0.437,2.101-1.155,4.295c-0.719,2.193-1.216,4.173-1.105,4.399c0.111,0.225-0.156,1.37-0.592,2.544
			c-0.435,1.174-0.741,2.719-0.68,3.432c0.062,0.714-0.278,1.733-0.757,2.266c-0.478,0.532-0.568,0.836-0.199,0.675
			s0.207,1.005-0.36,2.591c-0.567,1.584-0.877,3.194-0.689,3.576c0.188,0.381-0.13,1.639-0.706,2.794
			c-0.576,1.155-0.9,2.398-0.722,2.762c0.179,0.363,0.002,0.82-0.392,1.014c-0.396,0.193-0.612,0.567-0.483,0.83
			c0.13,0.263,0.477,0.359,0.772,0.215c0.371-0.183,0.462,0.048,0.294,0.747c-0.133,0.556-0.552,1.163-0.929,1.348
			c-0.379,0.186-0.481,0.468-0.228,0.626c0.252,0.159,0.236,0.852-0.038,1.541c-0.389,0.979-0.623,1.143-1.076,0.756
			c-0.318-0.271-0.141,0.065,0.394,0.75c0.712,0.912,0.77,1.225,0.216,1.171c-0.461-0.044-0.598,0.162-0.35,0.529
			c0.886,1.313,0.905,1.959,0.06,2.036c-0.579,0.053-0.827,0.551-0.739,1.488c0.073,0.775-0.036,1.491-0.242,1.593
			c-0.206,0.101,0.179,1.115,0.855,2.253c0.73,1.229,1.028,2.168,0.733,2.312c-0.303,0.149-0.734-0.506-1.107-1.683
			c-0.391-1.234-0.691-1.674-0.833-1.225c-0.27,0.855,0.006,7.63,0.339,8.306c0.131,0.266-0.116,1.082-0.548,1.813
			c-0.432,0.732-0.71,1.838-0.616,2.459c0.093,0.622-0.045,1.109-0.307,1.083c-0.262-0.025-0.133,0.561,0.289,1.303
			c0.42,0.742,0.538,1.409,0.26,1.481c-0.278,0.072-0.467,0.485-0.421,0.916c0.059,0.529,0.227,0.56,0.519,0.094
			c0.314-0.502,0.458-0.42,0.523,0.302c0.05,0.546,0.196,1.209,0.326,1.472c0.13,0.264-0.078,0.521-0.461,0.572
			c-1.048,0.139-1.213,1.981-0.342,3.798c0.62,1.291,0.59,1.631-0.152,1.698c-0.774,0.071-0.756,0.305,0.108,1.432
			c0.823,1.072,0.865,1.363,0.202,1.422c-0.585,0.054-0.719,0.661-0.454,2.06c0.207,1.09,0.525,2.033,0.708,2.096
			c0.182,0.062,0.234,0.515,0.115,1.008c-0.117,0.493,0.041,1.132,0.353,1.421c0.312,0.289,0.521,0.925,0.464,1.413
			c-0.084,0.732-0.229,0.812-0.827,0.454c-0.523-0.314-0.62-0.02-0.352,1.064c0.431,1.733,0.304,3.422-0.242,3.236
			c-0.624-0.213-1.008-5.703-0.41-5.858c0.313-0.082,0.236-0.514-0.177-0.992c-0.403-0.466-0.739-1.427-0.747-2.138
			c-0.008-0.709-0.083-2.593-0.167-4.186c-0.603-11.465-0.247-28.885,0.665-32.559c0.116-0.465,0.089-0.787-0.059-0.714
			s-0.181-0.577-0.074-1.443c0.107-0.867,0.445-1.552,0.75-1.522c0.306,0.029,0.387-0.289,0.181-0.707
			c-0.205-0.419-0.096-2.779,0.244-5.244c0.34-2.465,0.633-5.408,0.651-6.539c0.018-1.132,0.246-2.164,0.507-2.292
			c0.262-0.128,0.339-0.509,0.174-0.845c-0.375-0.762,0.82-4.991,1.505-5.328c0.278-0.137,0.389-0.392,0.246-0.566
			c-0.417-0.509-0.316-3.558,0.124-3.775c0.221-0.108,0.266-0.476,0.098-0.817c-0.167-0.34,0.103-1.966,0.601-3.612
			c0.497-1.646,0.853-3.098,0.789-3.227c-0.063-0.128,0.026-0.646,0.198-1.149c0.171-0.504,0.808-2.869,1.412-5.256
			c1.081-4.265,7.078-22.178,8.913-26.624c0.516-1.247,1.428-3.167,2.028-4.265c0.599-1.098,1.192-2.338,1.318-2.755
			c0.515-1.718,3.876-8.092,4.403-8.352c0.312-0.154,0.444-0.553,0.293-0.887c-0.349-0.769,1.49-4.449,6.593-13.193
			c1.712-2.934,8.641-13.755,8.884-13.874c0.111-0.054,0.687-0.953,1.282-1.996c1.127-1.981,9.623-13.212,14.115-18.659
			c6.91-8.381,19.788-21.359,28.664-28.888c19.871-16.856,47.497-33.216,71.02-42.059c34.737-13.059,74.773-18.182,112.349-14.376
			c9.192,0.931,14.828,1.875,27.626,4.626c11.282,2.425,33.142,9.881,42.352,14.445c1.081,0.535,2.903,1.362,4.052,1.839
			c2.407,0.998,14.961,7.58,18.383,9.638c1.271,0.764,3.224,1.942,4.344,2.617c10.104,6.106,26.221,17.865,32.468,23.692
			c1.606,1.498,3.286,2.983,3.731,3.3c0.445,0.318,3.733,3.514,7.305,7.103c16.855,16.936,29.8,33.657,39.1,50.511
			c8.072,14.629,9.997,18.523,14.093,28.52c6.713,16.387,12.131,34.187,14.208,46.671c0.501,3.021,1.07,6.349,1.266,7.397
			c2.698,14.572,3.45,26.139,3.367,51.815c-0.08,24.603-1.106,58.253-1.822,59.714c-0.105,0.215-0.211,1.436-0.233,2.712
			c-0.022,1.276-0.3,2.747-0.614,3.268c-0.316,0.52-0.402,1.298-0.19,1.729c0.212,0.431,0.192,1.214-0.043,1.74
			c-0.236,0.526-0.201,1.277,0.078,1.668c0.341,0.482,0.189,0.805-0.469,1c-0.823,0.243-0.823,0.471,0.006,1.483
			c0.694,0.848,0.742,1.058,0.165,0.722c-0.623-0.363-0.693,0.121-0.306,2.081c0.277,1.406,0.278,2.667,0.002,2.803
			c-0.559,0.274-0.497,4.465,0.081,5.644c0.202,0.408,0.105,0.716-0.215,0.686c-0.859-0.084-0.835,1.279,0.027,1.573
			c1.015,0.345,1.044,5.443,0.033,5.534c-0.402,0.037-0.656,0.289-0.563,0.559c0.343,1.005,0.384,1.295,0.301,2.062
			c-0.049,0.447,0.132,0.677,0.421,0.535c0.278-0.137,0.666,0.074,0.859,0.469s0.03,0.877-0.364,1.071
			c-0.396,0.195-0.511,0.773-0.258,1.287c0.457,0.932,0.739,3.855,0.439,4.564c-0.087,0.206-0.089,1.276-0.003,2.378
			c0.085,1.102,0.057,3.521-0.063,5.379c-0.217,3.311-0.22,8.761-0.015,20.504c0.189,10.751,1.861,22.918,4.572,33.266
			c2.816,10.745,4.561,15.596,12.291,34.194c3.373,8.118,5.443,14.368,6.934,20.948c0.856,3.783,1.158,17.919,0.508,23.863
			c-0.553,5.062-2.305,16.195-2.88,18.297c-0.257,0.944-0.476,2.585-0.489,3.648c-0.012,1.24-0.438,2.261-1.188,2.854
			c-2.298,1.812-2.934,2.926-2.81,4.94c0.068,1.123,0.323,2.166,0.566,2.319c0.243,0.152,1.457,2.283,2.698,4.737
			c2.24,4.432,2.287,4.484,7.296,8.172c4.174,3.073,5.248,4.132,6.242,6.153c0.981,1.998,1.096,2.879,0.629,4.854
			c-0.314,1.329-1.068,2.977-1.672,3.668c-1.478,1.68-1.625,5.386-0.321,8.038c1.219,2.477,4.486,4.686,7.249,4.897
			c2.033,0.155,5.218,2.333,6.133,4.191c1.168,2.379,0.728,5.184-1.473,9.358l-2.146,4.077l1.882,3.328
			c2.168,3.834,5.186,6.092,7.008,5.239c1.328-0.62,4.503,0.764,6.372,2.776c2.415,2.604,2.046,5.933-1.412,12.738l-1.609,3.171
			l1.541,2.309c2.392,3.579,7.257,6.942,7.472,5.164c0.146-1.196,1.715-1.131,3.148,0.13c0.69,0.605,1.677,1.203,2.193,1.326
			c1.166,0.28,2.484,2.875,2.567,5.045c0.092,2.419-1.057,6.016-2.566,8.035c-0.731,0.981-1.349,2.311-1.372,2.952
			c-0.062,1.833,2.18,5.936,3.803,6.95c2.042,1.28,4.559,2.047,5.383,1.641c0.853-0.418,3.474,1.484,4.268,3.102
			c0.572,1.161,0.357,4.403-0.403,6.077c-0.219,0.487-2.229,6.019-4.468,12.299c-7.49,21.011-9.738,26.377-12.236,29.187
			c-0.903,1.018-1.358,2.188-1.286,3.304c0.106,1.675-2.232,8.98-7.864,24.563c-2.229,6.171-2.7,8.208-2.539,10.999
			c0.257,4.398-0.809,5.906-6.857,9.708C582.647,759.276,548.679,776.363,540.579,779.688z M511.379,725.74
			c-0.52-0.062-1.263,0.059-1.65,0.268c-0.464,0.249-0.31,0.357,0.455,0.32C511.775,726.245,512.532,725.874,511.379,725.74z
			 M565.957,698.543c7.692-4.104,11.532-6.341,14.989-8.738c1.785-1.241,3.52-2.229,3.85-2.196c0.332,0.032,0.896-0.273,1.251-0.68
			c0.65-0.738,2.208-1.821,5.625-3.907c3.937-2.402,3.776-2.26,2.268-2.037c-2.674,0.397-5.924,2.235-6.012,3.402
			c-0.051,0.672-0.311,0.966-0.686,0.777c-0.333-0.167-2.416,0.622-4.645,1.757c-3.979,2.024-18.219,9.706-21.836,11.774
			c-1.021,0.586-3.123,1.745-4.672,2.582c-2.264,1.223-2.594,1.536-1.679,1.601c0.626,0.043,1.7-0.353,2.39-0.881
			c0.904-0.694,1.342-0.775,1.581-0.29c0.339,0.69,1.948,0.563,2.499-0.196C561.051,701.276,563.336,699.942,565.957,698.543z
			 M559.959,701.292c-0.138-0.278-0.033-0.611,0.229-0.741c0.265-0.128,0.526-0.14,0.583-0.023c0.057,0.114-0.046,0.449-0.229,0.741
			C560.357,701.56,560.096,701.571,559.959,701.292z M497.456,731.579c-0.525,0.108-1.168,0.434-1.427,0.723
			c-0.261,0.29,0.169,0.203,0.954-0.196C497.771,731.709,497.981,731.473,497.456,731.579z M566.411,691.156
			c-0.394,0.028-0.933,0.294-1.194,0.588c-0.265,0.295,0.059,0.271,0.715-0.054C566.59,691.367,566.806,691.128,566.411,691.156z
			 M559.287,692.372c0.385-0.428,0.777-0.531,0.919-0.243c0.155,0.314,0.953,0.029,2.145-0.772c1.045-0.702,2.35-1.445,2.901-1.653
			c2.131-0.804,9.244-5.138,9.373-5.709c0.052-0.229,0.557-0.967,1.124-1.64c0.568-0.673,0.886-1.518,0.711-1.876
			c-0.248-0.501-1.044-0.248-3.468,1.101c-1.733,0.964-3.714,2.16-4.4,2.658c-0.948,0.69-1.267,0.716-1.323,0.111
			c-0.045-0.507-0.536-0.7-1.338-0.527c-1.404,0.301-2.604,1.362-2.28,2.021c0.296,0.598,0.922,0.206,1.263-0.794
			c0.158-0.465,0.492-0.775,0.742-0.69c0.249,0.085,0.298,0.609,0.107,1.167c-0.255,0.753-1.49,1.547-4.769,3.071
			c-2.76,1.286-4.23,2.181-3.908,2.382c0.309,0.193-0.008,0.436-0.792,0.604c-1.509,0.323-3.25,1.686-2.947,2.303
			c0.114,0.231,0.829,0.117,1.592-0.257c0.828-0.408,1.651-0.433,2.056-0.061c0.369,0.345,0.886,0.382,1.146,0.09
			C558.4,693.361,558.917,692.785,559.287,692.372z M577.719,681.832c-0.129-0.265-0.45-0.374-0.714-0.244
			c-0.263,0.128-0.372,0.449-0.242,0.714c0.129,0.262,0.45,0.372,0.713,0.243C577.738,682.415,577.849,682.095,577.719,681.832z
			 M577.735,679.446c-0.129-0.261-0.451-0.371-0.714-0.242c-0.263,0.13-0.374,0.451-0.244,0.714s0.451,0.37,0.714,0.242
			C577.754,680.03,577.864,679.709,577.735,679.446z M554.01,690.703c-0.52,0.104-1.273,0.477-1.675,0.824
			c-0.401,0.346,0.024,0.258,0.945-0.193C554.201,690.88,554.529,690.597,554.01,690.703z M560.755,687.202
			c-0.13-0.262-0.667-0.267-1.192-0.009c-0.526,0.258-0.852,0.686-0.722,0.95c0.129,0.262,0.665,0.267,1.193,0.008
			C560.559,687.895,560.884,687.467,560.755,687.202z M563.004,685.734c-0.05-0.103-0.535,0.031-1.078,0.298
			c-0.541,0.266-0.757,0.627-0.476,0.803C561.906,687.122,563.227,686.188,563.004,685.734z M547.632,680.174
			c-0.525,0.106-1.167,0.431-1.428,0.721c-0.259,0.292,0.171,0.204,0.957-0.194C547.943,680.302,548.157,680.064,547.632,680.174z
			 M557.268,675.218c1.597-0.727,2.391-1.433,2.855-2.535c0.854-2.021,1.715-2.399,1.198-0.526l-0.407,1.477l1.263-1.057
			c0.695-0.581,4.055-2.777,7.467-4.88c3.41-2.101,6.532-4.281,6.936-4.843c0.403-0.562,1.273-1.288,1.933-1.612
			c0.661-0.325,1.227-0.858,1.256-1.186c0.033-0.329,0.435-0.632,0.895-0.673c0.458-0.042,0.729-0.29,0.6-0.555
			c-0.376-0.765-2.875,0.006-3.688,1.138c-0.543,0.758-1.121,1.046-2.158,1.076c-1.723,0.051-5.25,1.736-5.918,2.826
			c-0.268,0.437-0.687,0.675-0.931,0.525c-0.245-0.148-1.841,0.668-3.544,1.813c-2.331,1.564-3.458,2.07-4.535,2.033
			c-1.157-0.039-1.451,0.104-1.513,0.74c-0.074,0.768-0.818,1.281-7.984,5.508c-3.96,2.333-4.535,2.982-2.903,3.27
			c0.983,0.174,1.131,0.377,0.915,1.271c-0.231,0.959,0.057,0.872,2.9-0.871C553.637,677.094,556.053,675.769,557.268,675.218z
			 M545.264,678.848c0.322-0.527,0.076-0.622-0.914-0.349c-1.311,0.36-1.543,0.86-0.554,1.199
			C544.415,679.909,544.726,679.729,545.264,678.848z M556.97,660.776c3.341-1.846,6.313-3.684,6.605-4.085
			c0.293-0.399,1.538-1.407,2.763-2.235c2.352-1.591,4.425-3.688,4.166-4.217c-0.3-0.606-11.89,2.725-12.153,3.495
			c-0.043,0.127-3.024,1.806-6.625,3.732c-3.599,1.924-8.528,4.631-10.954,6.015c-2.424,1.382-5.64,3.131-7.149,3.887
			c-1.509,0.753-2.768,1.624-2.798,1.933c-0.03,0.311,1.335-0.12,3.056-0.968c1.711-0.84,3.355-1.374,3.655-1.188
			c0.299,0.189,0.853,0.117,1.231-0.159c0.376-0.276,0.913-0.278,1.189-0.005c0.277,0.271,0.217,0.636-0.134,0.811
			c-0.35,0.175-1.094,0.941-1.654,1.704c-0.561,0.765-1.566,1.545-2.24,1.735c-0.671,0.191-1.729,0.832-2.351,1.423
			C532.411,673.762,545.529,667.102,556.97,660.776z M542.161,650.598c0.269-0.448,0.273-0.711,0.012-0.583
			c-0.264,0.131-0.698,0.604-0.968,1.052c-0.27,0.451-0.274,0.711-0.012,0.582C541.456,651.519,541.892,651.048,542.161,650.598z
			 M533.558,653.641c-0.129-0.264-0.451-0.375-0.714-0.244c-0.264,0.13-0.373,0.451-0.243,0.713c0.13,0.263,0.45,0.373,0.713,0.243
			C533.576,654.225,533.687,653.903,533.558,653.641z M543.648,647.883c0.241-0.389,0.527-0.438,0.686-0.116
			c0.188,0.381,1.01,0.086,2.651-0.951c1.31-0.827,3.871-2.415,5.691-3.526c1.824-1.113,3.223-2.207,3.112-2.432
			s1.126-0.972,2.75-1.659c1.623-0.688,2.871-1.41,2.774-1.607c-0.186-0.377,0.304-0.699,4.567-2.992
			c2.807-1.508,3.377-2.169,2.405-2.777c-0.424-0.266-0.697-0.14-0.959,0.448c-0.27,0.601-0.535,0.662-1.006,0.226
			c-0.397-0.368-1.011-0.314-1.63,0.147c-0.545,0.408-1.146,0.835-1.333,0.953c-0.188,0.116-0.162,0.591,0.056,1.055
			c0.345,0.734,0.293,0.776-0.399,0.318c-0.678-0.448-1.964,0.07-8.541,3.437c-11.604,5.944-15.709,8.496-15.87,9.865
			c-0.037,0.311-1.145,0.851-2.554,1.242c-2.667,0.746-4.237,1.785-3.859,2.556c0.132,0.27,0.692,0.086,1.292-0.421
			c0.76-0.646,1.248-0.72,1.735-0.267c0.494,0.457,1.014,0.37,1.911-0.316c0.678-0.52,1.329-0.749,1.447-0.508
			C538.83,651.072,543.048,648.849,543.648,647.883z M531.658,652.197c-0.128-0.265-0.545-0.328-0.924-0.14
			c-0.38,0.187-0.717,0.618-0.749,0.963c-0.034,0.342,0.382,0.405,0.923,0.14C531.451,652.892,531.789,652.459,531.658,652.197z
			 M421.161,697.577c-0.737-0.463-0.962-0.198-0.55,0.643c0.202,0.41,0.521,0.503,0.706,0.206
			C421.503,698.128,421.434,697.747,421.161,697.577z M525.725,643.752c-0.182-0.37,0.049-0.462,0.747-0.295
			c0.761,0.184,0.942,0.104,0.731-0.325c-0.188-0.379,0.138-0.626,0.975-0.734c2.791-0.37,15.614-7.904,22.467-13.2
			c2.394-1.85,4.631-3.338,4.976-3.303c0.342,0.033,0.915-0.271,1.272-0.673c0.586-0.66,0.535-0.728-0.498-0.657
			c-1.094,0.073-1.1,0.051-0.092-0.484c0.583-0.311,0.981-0.726,0.883-0.921c-0.097-0.199-1.585,0.312-3.308,1.136
			c-2.397,1.146-3.372,1.371-4.155,0.962c-0.954-0.501-1.73-0.144-11.747,5.394c-15.34,8.479-18.388,10.289-18.146,10.779
			c0.117,0.24,1.195-0.047,2.395-0.637c1.333-0.655,2.159-0.829,2.122-0.448c-0.033,0.344,0.274,0.458,0.686,0.257
			c1.271-0.624,1.403,0.789,0.141,1.505c-1.365,0.773-1.84,1.742-0.793,1.621c0.388-0.044,0.683,0.177,0.651,0.491
			c-0.03,0.312,0.173,0.457,0.451,0.321C525.763,644.402,525.87,644.048,525.725,643.752z M513.274,644.787
			c-0.412,0.033-0.818,0.254-0.898,0.489c-0.08,0.238,0.258,0.211,0.753-0.057C513.675,644.922,513.731,644.754,513.274,644.787z
			 M515.553,643.362c-0.667-0.227-0.922-0.103-1.149,0.563c-0.227,0.668-0.037,0.731,0.857,0.293
			C516.153,643.78,516.217,643.59,515.553,643.362z M516.403,629.46c-0.778-0.084-2.553,1.019-2.339,1.454
			c0.05,0.101,0.789-0.163,1.643-0.59C516.761,629.801,516.984,629.523,516.403,629.46z M522.709,625.874
			c-0.062-0.677,0.055-0.747,0.644-0.388c0.561,0.343,0.652,0.306,0.424-0.178c-0.411-0.864-2.021-0.622-2.353,0.352
			c-0.151,0.445-0.986,1.16-1.854,1.587c-0.87,0.426-1.478,0.982-1.353,1.237C518.596,629.254,522.793,626.813,522.709,625.874z
			 M529.724,621.426c0.057-0.487,0.344-0.598,0.969-0.387c1.19,0.407,2.688-0.384,2.284-1.203c-0.494-1.005,0.327-2.562,1.022-1.938
			c0.423,0.379,0.492,0.353,0.296-0.121c-0.142-0.34-0.026-0.729,0.255-0.867c0.283-0.14,0.738,0.371,1.013,1.135
			c0.366,1.024,0.663,1.251,1.122,0.862c0.345-0.29,2.138-1.532,3.984-2.761c1.847-1.228,3.604-2.549,3.903-2.935
			c0.302-0.387,1.806-1.275,3.342-1.979c1.827-0.835,2.873-1.589,3.015-2.177c0.119-0.495,0.742-1.159,1.388-1.476
			c1.165-0.572,2.184-2.431,1.466-2.675c-0.207-0.07-0.955,0.396-1.663,1.036c-0.709,0.644-2.028,1.312-2.938,1.486
			c-0.907,0.178-2.362,0.777-3.233,1.332c-1.809,1.155-10.104,5.775-12.574,7.004c-0.908,0.452-2.241,0.802-2.961,0.775
			c-1.036-0.035-1.473,0.223-2.091,1.231c-0.655,1.071-9.818,6.897-12.503,7.949c-0.344,0.135-0.541,0.413-0.439,0.619
			c0.102,0.207,1.419-0.242,2.925-1.001c3.228-1.621,5.108-1.993,5.549-1.099c0.175,0.355,0.638,0.615,1.027,0.578
			C526.017,624.712,529.632,622.179,529.724,621.426z M524.847,622.635c-0.223-0.454,1.097-1.386,1.556-1.1
			c0.279,0.178,0.065,0.538-0.478,0.804C525.384,622.605,524.898,622.738,524.847,622.635z M556.96,604.047
			c-0.749-0.471-1.41,0.072-1.029,0.846c0.208,0.427,0.572,0.459,0.926,0.077C557.174,604.627,557.221,604.212,556.96,604.047z
			 M512.506,616.263c0.828-0.407,1.833-0.709,2.231-0.672c0.397,0.04,1.799-0.604,3.113-1.427c1.315-0.824,5.203-3.011,8.643-4.857
			c3.439-1.85,6.43-3.649,6.648-4.001c0.217-0.354,1.317-1.176,2.442-1.826c1.127-0.65,2.199-1.524,2.387-1.94
			c0.187-0.418,1.942-1.618,3.902-2.668c1.959-1.05,3.62-2.079,3.69-2.289c0.37-1.085-11.052,2.894-17.973,6.261
			c-11.235,5.468-15.5,8.054-15.772,9.559c-0.194,1.066-0.119,1.216,0.536,1.058c0.419-0.101,0.853,0.003,0.964,0.229
			c0.202,0.409-0.203,0.849-2.42,2.628c-0.645,0.516-1.062,1.165-0.928,1.438c0.135,0.273,0.421,0.216,0.635-0.126
			C510.822,617.285,511.676,616.672,512.506,616.263z M508.225,618.153c-0.525,0.108-1.167,0.434-1.427,0.724
			c-0.259,0.29,0.171,0.203,0.955-0.194C508.537,618.284,508.751,618.046,508.225,618.153z M497.561,605.581
			c-0.412,0.032-0.817,0.251-0.897,0.487c-0.081,0.237,0.256,0.213,0.75-0.058C497.96,605.715,498.018,605.544,497.561,605.581z
			 M504.095,602.177c-0.13-0.262-0.666-0.266-1.192-0.007c-0.525,0.261-0.851,0.688-0.723,0.95c0.131,0.265,0.666,0.265,1.193,0.007
			C503.899,602.869,504.224,602.442,504.095,602.177z M511.949,598.518c-0.395,0.029-0.934,0.293-1.197,0.59
			c-0.264,0.294,0.061,0.27,0.717-0.055C512.127,598.73,512.344,598.487,511.949,598.518z M515.476,596.326
			c-0.225-0.457,0.163-0.915,1.163-1.372c0.826-0.378,1.537-1.039,1.579-1.471c0.061-0.619,0.365-0.776,1.438-0.739
			c0.931,0.033,2.312-0.554,4.363-1.855c1.648-1.045,4.13-2.429,5.514-3.073c1.903-0.885,2.548-1.438,2.644-2.271
			c0.119-1.042,0.134-1.05,0.276-0.132c0.185,1.168,0.653,0.999,1.5-0.54c0.349-0.635,1.926-1.923,3.506-2.86
			c1.579-0.94,3.075-2.166,3.325-2.726c0.252-0.56,0.557-1,0.68-0.979c0.123,0.021,0.669-0.179,1.211-0.446
			c0.601-0.294,0.754-0.627,0.394-0.854c-0.324-0.205-0.401-0.671-0.17-1.036c0.229-0.367,0.146-0.838-0.183-1.044
			c-0.328-0.206-0.737-0.153-0.907,0.117c-0.67,1.068-0.709-0.479-0.045-1.683c0.534-0.965,0.518-1.192-0.068-0.93
			c-1.023,0.462-3.739-0.564-2.779-1.049c0.423-0.215,0.42-0.378-0.007-0.441c-1.693-0.261-2.747-5.421-1.074-5.26
			c0.92,0.09,0.396-0.605-0.976-1.299c-1.253-0.631-1.353-0.621-3.518,0.309c-1.062,0.456-1.245,0.404-0.859-0.236
			c0.432-0.721,0.402-0.774-0.256-0.459c-0.409,0.195-0.881,0.756-1.047,1.243c-0.241,0.705-0.445,0.796-1.007,0.444
			c-0.747-0.472-7.541,2.435-22.998,9.832c-5.977,2.862-7.746,3.881-7.521,4.338c0.163,0.33,0.632,0.433,1.041,0.231
			c0.41-0.202,0.719-0.085,0.684,0.258c-0.031,0.341,0.276,0.459,0.688,0.258c0.409-0.203,0.852-0.152,0.98,0.111
			c0.129,0.263,0.029,0.578-0.222,0.703c-0.252,0.122-0.205,1.103,0.104,2.178c0.306,1.073,0.477,2.328,0.378,2.783
			c-0.137,0.624,0.167,0.674,1.212,0.194c1.28-0.587,1.235-0.454-0.357,1.075c-0.422,0.404-0.346,0.617,0.33,0.92
			c0.525,0.236,0.726,0.553,0.498,0.788c-0.592,0.608,0.151,3.399,0.817,3.071c0.308-0.151,0.361-0.398,0.123-0.549
			c-0.533-0.333,0.428-2.735,1.013-2.536c0.769,0.263,0.816,0.938,0.093,1.294c-0.396,0.194-0.56,0.674-0.366,1.071
			c0.194,0.395,0.176,0.805-0.046,0.914c-0.219,0.106-0.08,0.841,0.308,1.629c0.388,0.791,0.866,1.357,1.06,1.262
			c0.194-0.096,0.45,0.299,0.567,0.875c0.171,0.831,0.598,0.978,2.033,0.697c1.114-0.217,1.955-0.639,2.174-1.089
			c0.254-0.521,0.625-0.417,1.277,0.35C515.016,597.496,516.045,597.482,515.476,596.326z M539.315,574.4
			c0.08-0.236,0.485-0.455,0.897-0.488c0.457-0.034,0.399,0.137-0.146,0.432C539.572,574.612,539.234,574.639,539.315,574.4z
			 M506.148,582.191c-0.137-0.279-0.033-0.611,0.23-0.74c0.263-0.133,0.524-0.143,0.582-0.025c0.057,0.115-0.047,0.449-0.229,0.742
			C506.548,582.46,506.285,582.471,506.148,582.191z M518.688,595.003c-0.293-0.183-0.626-0.285-0.742-0.229
			c-0.116,0.057-0.105,0.319,0.024,0.583c0.129,0.263,0.463,0.366,0.742,0.229C518.99,595.447,518.98,595.188,518.688,595.003z
			 M508.936,599.438c0.946-1.02,0.335-1.587-1.001-0.93c-1.162,0.572-1.301,1.217-0.329,1.548
			C508.186,600.253,508.176,600.258,508.936,599.438z M501.832,583.684c-0.29-0.182-0.624-0.286-0.742-0.229
			c-0.115,0.059-0.104,0.318,0.026,0.582c0.128,0.264,0.464,0.367,0.741,0.229C502.137,584.131,502.126,583.868,501.832,583.684z
			 M501.845,581.897c-0.129-0.264-0.464-0.367-0.742-0.23c-0.278,0.138-0.267,0.399,0.025,0.582
			c0.291,0.184,0.625,0.287,0.742,0.229C501.985,582.421,501.975,582.16,501.845,581.897z M499.859,582.467
			c-0.412,0.03-0.816,0.253-0.897,0.488c-0.081,0.237,0.259,0.212,0.752-0.057C500.259,582.601,500.316,582.433,499.859,582.467z
			 M498.517,580.562c0.038-0.395-1.037-0.049-2.921,0.937l-2.982,1.559l2.553-0.848c1.404-0.468,2.72-0.887,2.922-0.936
			C498.29,581.227,498.482,580.906,498.517,580.562z M522.635,563.764c5.032-2.79,6.42-3.862,6.027-4.658
			c-0.124-0.25,0.074-0.427,0.44-0.391c0.904,0.087,1.793-2.318,1.257-3.407c-0.46-0.938-1.296-0.844-1.393,0.155
			c-0.077,0.804-1.618,0.906-1.8,0.12c-0.08-0.343-0.154-0.417-0.168-0.165c-0.036,0.697-1.564,1.3-2.492,0.984
			c-0.628-0.213-0.923-0.066-1.227,0.609c-0.309,0.691-0.614,0.795-1.354,0.463c-1.244-0.558-2.326-0.005-2.224,1.134
			c0.065,0.71-0.064,0.81-0.61,0.468c-0.667-0.418-1.276-0.141-10.63,4.86c-0.906,0.484-2.425,1.204-3.376,1.594
			c-0.951,0.393-3.729,1.81-6.174,3.149c-2.445,1.341-4.852,2.429-5.346,2.421c-1.458-0.031-13.319,5.286-13.388,6
			c-0.033,0.344,0.446,0.401,1.066,0.127c0.62-0.273,2.235-0.962,3.592-1.527c1.354-0.567,3.793-1.629,5.418-2.36l2.954-1.328
			l1.813,1.719l1.812,1.717l-1.134,0.559c-1.319,0.647-2.429,1.747-2.211,2.189C493.663,578.548,515.239,567.86,522.635,563.764z
			 M478.669,578.032c-0.414,0.033-0.817,0.253-0.899,0.488c-0.079,0.238,0.258,0.212,0.752-0.056
			C479.068,578.169,479.125,577.998,478.669,578.032z M506.999,560.08c2.756-2.989,10.858-7.773,21.992-12.991
			c1.86-0.87,4.429-2.444,5.708-3.495c2.066-1.695,0.937-1.211-9.986,4.299c-12.47,6.29-17.316,9.293-18.087,11.21
			c-0.257,0.637-1.586,1.668-3.357,2.6c-1.613,0.851-2.954,1.776-2.981,2.057C500.202,564.632,505.456,561.75,506.999,560.08z
			 M377.819,623.275c-0.129-0.265-0.45-0.373-0.714-0.243c-0.263,0.13-0.372,0.451-0.243,0.713c0.129,0.265,0.451,0.374,0.714,0.245
			C377.84,623.859,377.948,623.537,377.819,623.275z M501.498,560.647c-2.062,0.347-9.637,4.066-8.83,4.336
			c0.841,0.28,4.32-1.12,7.664-3.081C502.34,560.726,502.583,560.462,501.498,560.647z M504.857,559.026
			c-0.129-0.263-0.558-0.319-0.951-0.125c-0.395,0.194-0.612,0.568-0.483,0.832c0.13,0.262,0.559,0.317,0.953,0.124
			C504.772,559.664,504.989,559.29,504.857,559.026z M428.992,595.547c-0.615-0.209-3.505,1.055-6.762,2.96
			c-1.146,0.669-1.092,0.691,0.557,0.226C425.657,597.92,429.767,595.81,428.992,595.547z M434.844,592.561
			c0.515-1.021,0.345-0.99-1.689,0.327c-1.458,0.946-2.471,1.333-2.855,1.093c-0.328-0.208-0.953-0.182-1.391,0.054
			c-0.602,0.328-0.471,0.43,0.539,0.421c0.732-0.005,1.423,0.172,1.531,0.395C431.307,595.516,434.229,593.785,434.844,592.561z
			 M538.822,541.722c-0.295-0.187-0.677-0.116-0.849,0.155c-0.462,0.736-0.197,0.964,0.644,0.55
			C539.028,542.226,539.12,541.908,538.822,541.722z M401.108,608.747c-0.972-0.331-5.85,1.662-5.552,2.268
			c0.11,0.225,1.37-0.07,2.799-0.652c1.429-0.583,2.822-1.119,3.097-1.194C401.726,609.094,401.572,608.906,401.108,608.747z
			 M407.967,605.056c-0.991-0.443-1.847,0-3.939,2.042l-1.604,1.566l3.178-1.622C408.131,605.75,408.611,605.346,407.967,605.056z
			 M412.049,603.476c-1.233-0.146-2.212,0.335-1.915,0.938c0.131,0.265,0.826,0.185,1.548-0.176
			C412.703,603.73,412.785,603.559,412.049,603.476z M415.397,601.828c-0.296-0.602-0.802-0.352-1.436,0.705
			c-0.396,0.659-0.282,0.717,0.591,0.294C415.146,602.539,415.526,602.09,415.397,601.828z M543.381,538.895
			c-0.291-0.182-0.995-0.085-1.561,0.217c-0.997,0.53-0.992,0.548,0.125,0.49C543.542,539.52,544.01,539.29,543.381,538.895z
			 M389.195,613.785c-0.058-0.117-0.439-0.047-0.851,0.155c-0.41,0.201-0.503,0.519-0.205,0.707
			C388.629,614.952,389.443,614.289,389.195,613.785z M539.723,540.29c-0.414,0.03-0.818,0.251-0.898,0.489
			c-0.081,0.236,0.258,0.212,0.751-0.058C540.121,540.424,540.18,540.255,539.723,540.29z M403.121,600.355
			c-1.009-1.189-0.889-1.263,4.304-2.596c5.278-1.356,18.224-7.351,19.395-8.982c0.858-1.198,0.856-1.2-1.14-0.645
			c-1.1,0.306-4.773,2.07-8.164,3.918c-4.692,2.561-7.051,3.576-9.883,4.257c-5.619,1.343-6.643,1.918-6.285,3.515
			c0.38,1.698-0.727,2.546-2.526,1.933c-0.771-0.263-1.913-0.241-2.538,0.048c-0.626,0.288-3.235,1.426-5.798,2.524
			c-5.449,2.341-3.596,2.214,3.425-0.233c2.36-0.822,4.767-1.364,5.348-1.205c1.264,0.345,2.874-0.024,3.932-0.9
			C403.766,601.511,403.747,601.095,403.121,600.355z M450.133,577.618c0.033-0.343-0.23-0.501-0.586-0.354
			c-0.354,0.15-1.114,0.4-1.691,0.556c-3.127,0.843-8.574,3.709-8.26,4.345c0.283,0.577,2.144-0.027,6.761-2.186
			C448.4,579.024,450.099,577.962,450.133,577.618z M452.285,576.56c-0.13-0.263-0.449-0.372-0.715-0.244
			c-0.262,0.13-0.373,0.452-0.243,0.714c0.131,0.265,0.452,0.374,0.714,0.243C452.306,577.144,452.415,576.823,452.285,576.56z
			 M466.473,569.766c2.381-1.472,2.844-1.908,1.825-1.725c-2.12,0.384-5.507,2.096-5.235,2.646c0.157,0.318-0.134,0.487-0.807,0.475
			c-0.665-0.014-1.64,0.545-2.666,1.524l-1.616,1.545l2.653-1.247C462.087,572.3,464.717,570.853,466.473,569.766z M482.843,561.404
			c0.508-0.816,1.175-1.144,3.11-1.528c2.743-0.544,9.255-3.562,8.963-4.154c-0.104-0.21-1.659,0.275-3.454,1.076
			c-1.797,0.805-4.238,1.694-5.426,1.981c-3.244,0.781-7.964,3.551-8.442,4.951c-0.37,1.092-0.22,1.086,2.102-0.055
			C481.071,562.998,482.488,561.977,482.843,561.404z M496.532,554.794c-0.296-0.187-0.677-0.117-0.85,0.154
			c-0.462,0.737-0.197,0.964,0.643,0.549C496.735,555.296,496.829,554.979,496.532,554.794z M438.176,582.904
			c-0.129-0.264-0.653-0.274-1.164-0.022s-0.957,0.737-0.989,1.081c-0.034,0.353,0.469,0.361,1.164,0.021
			C437.859,583.653,438.305,583.166,438.176,582.904z M527.4,538.718c0.766-0.604,1.297-1.289,1.182-1.524
			c-0.26-0.527-8.425,3.443-9.678,4.709c-0.504,0.51-3.027,1.804-5.604,2.875c-5.186,2.156-5.705,2.495-5.25,3.421
			c0.251,0.512,2.043-0.247,9.138-3.87C522.04,541.848,526.637,539.325,527.4,538.718z M532.122,535.71
			c-0.413,0.03-0.819,0.25-0.897,0.487c-0.081,0.235,0.256,0.211,0.75-0.057C532.522,535.843,532.579,535.673,532.122,535.71z
			 M468.333,565.698c-0.131-0.264-1.282,0.036-2.561,0.667c-1.279,0.627-3.391,1.496-4.695,1.93
			c-1.563,0.518-2.283,0.963-2.114,1.305c0.23,0.472,1.791-0.059,7.767-2.629C467.74,566.532,468.462,565.96,468.333,565.698z
			 M488.189,555.638c-0.062-0.299-1.139-0.052-2.423,0.56c-1.269,0.603-2.572,1.077-2.897,1.053
			c-0.325-0.022-0.934,0.313-1.354,0.752c-0.421,0.436-1.641,1.043-2.712,1.348c-2.019,0.57-3.606,2.025-1.986,1.819
			C479.206,560.865,488.357,556.413,488.189,555.638z M509.099,544.693c-0.051-0.103-0.748,0.141-1.553,0.535
			c-0.806,0.396-1.258,0.851-1.005,1.009C506.969,546.504,509.299,545.099,509.099,544.693z M519.295,539.451
			c-0.291-0.184-0.626-0.286-0.741-0.229c-0.117,0.057-0.105,0.319,0.024,0.583c0.129,0.263,0.464,0.364,0.741,0.229
			C519.598,539.896,519.588,539.633,519.295,539.451z M524.159,536.654c-0.264-0.536-0.626-0.515-1.301,0.077
			c-0.513,0.449-1.215,0.958-1.558,1.13c-1.298,0.655,0.345,0.85,1.749,0.206C524.074,537.6,524.412,537.169,524.159,536.654z
			 M473.113,557.855c-0.364-0.885-0.995-1.767-1.404-1.958c-0.407-0.192-0.823-0.891-0.924-1.552
			c-0.124-0.839-0.296-1.016-0.564-0.589c-0.249,0.398,0.162,1.521,1.177,3.209c0.861,1.428,1.675,2.785,1.811,3.019
			C473.793,560.984,473.718,559.324,473.113,557.855z M490.279,551.127c-0.113-0.228,0.47-0.63,1.291-0.896
			c1.308-0.42,1.443-0.668,1.088-2.006c-0.592-2.231-11.892-23.798-14.617-27.895c-1.279-1.927-8.776-16.154-16.659-31.615
			c-9.526-18.686-14.832-28.661-15.825-29.751c-1.514-1.663-3.34-2.436-3.846-1.627c-0.153,0.242-0.816,0.423-1.475,0.399
			c-0.659-0.023-1.844,0.164-2.631,0.417c-0.786,0.251-2.272,0.691-3.303,0.977c-1.367,0.38-2.335,1.087-3.604,2.637
			c-1.571,1.918-1.658,2.271-0.932,3.749c0.441,0.897,0.856,2.357,0.923,3.244c0.085,1.139,3.966,9.412,13.149,28.033
			c7.937,16.09,12.855,26.505,12.583,26.639c-0.455,0.223-1.248-1.24-6.857-12.671c-1.744-3.554-3.93-7.559-4.857-8.899l-1.686-2.44
			l1.833,3.852c5.776,12.145,22.147,44.847,24.285,48.509c0.26,0.445,0.634,0.73,0.83,0.632c0.197-0.095-2.729-6.342-6.503-13.882
			c-4.147-8.287-6.548-13.496-6.065-13.173c0.438,0.295,4.23,7.253,8.426,15.462c4.198,8.211,8.158,15.632,8.803,16.492l1.171,1.566
			l7.339-3.67C487.178,553.191,490.389,551.355,490.279,551.127z M424.776,527.259l-22.173-45.093l-2.405,1.182
			c-1.335,0.656-2.697,1.711-3.06,2.371c-0.359,0.653-1.417,1.63-2.352,2.17c-2.986,1.727-2.905,2.676,0.879,10.373
			c1.832,3.722,7.247,14.198,12.035,23.283c4.788,9.082,9.521,18.252,10.517,20.375c4.501,9.604,6.825,14.159,12.234,23.987
			c3.186,5.785,5.966,10.702,6.18,10.924c0.225,0.234,2.463-0.618,5.352-2.037l4.965-2.441L424.776,527.259z M464.522,563.322
			l2.063-0.92l-0.793-2.137c-0.436-1.177-1.225-2.625-1.753-3.22c-0.527-0.596-0.908-1.477-0.848-1.96
			c0.12-0.923-31.788-64.439-33.836-67.361c-0.547-0.778-4.828-11.251-5.008-12.245c-0.105-0.586-0.555-0.924-1.154-0.869
			c-1.23,0.111-6.193,3.925-6.281,4.826c-0.042,0.442-0.469,0.532-1.25,0.266c-1.429-0.487-2.892,0.1-2.095,0.839
			c0.398,0.368,0.213,0.618-0.632,0.85c-1.014,0.279-1.096,0.532-0.54,1.662c0.379,0.771,1.258,1.478,2.09,1.682
			c1.18,0.288,1.295,0.42,0.655,0.75c-1.122,0.581-0.831,1.871,0.595,2.656c0.888,0.487,1.174,0.918,1.024,1.54
			c-0.185,0.768,0.603,2.83,2.126,5.569c0.701,1.261,1.508,2.905,4.341,8.856c1.324,2.781,2.638,5.477,2.921,5.99
			c0.283,0.515,2.476,4.971,4.873,9.903c2.398,4.932,4.768,9.449,5.265,10.035c0.605,0.716,0.71,1.166,0.315,1.361
			c-0.42,0.207-0.237,0.79,0.63,2.018c0.792,1.12,1.062,1.883,0.767,2.175c-0.323,0.319-0.118,0.655,0.71,1.17
			c1.027,0.639,1.096,0.861,0.571,1.901c-0.331,0.655-0.325,1.054,0.012,0.901c0.334-0.155,0.8,0.114,1.037,0.598
			c0.236,0.481,0.671,0.96,0.967,1.061c0.708,0.245,6.749,11.341,9.078,16.675c1.416,3.242,4.107,7.191,5.204,7.637
			c0.836,0.339,1.702,0.098,3.61-1.002c1.39-0.801,2.612-1.244,2.734-0.993c0.123,0.249,0.008,0.56-0.256,0.688
			c-0.264,0.13-0.366,0.462-0.229,0.741c0.138,0.278,0.424,0.23,0.636-0.109C462.283,564.52,463.387,563.829,464.522,563.322z
			 M435.334,542.859c-16.635-33.619-16.12-32.622-16.701-32.335c-0.308,0.15,4.471,10.282,13.592,28.816
			c13.264,26.956,15.724,31.629,16.457,31.268C448.851,570.525,442.844,558.038,435.334,542.859z M431.38,570.252
			c-0.817-1.096-3.11-5.202-5.098-9.128c-4.463-8.813-7.305-13.471-8.148-13.355c-0.661,0.094,1.616,4.519,4.565,8.879
			c1.158,1.711,4.806,9.078,5.677,11.469c0.404,1.101,2.771,3.983,3.129,3.808c0.168-0.082,0.874,1.107,1.569,2.645l1.265,2.796
			l-0.737-2.562C433.188,573.373,432.208,571.362,431.38,570.252z M481.864,520.952c-4.725-9.402-8.405-17.187-8.18-17.297
			c0.227-0.111,0.058-0.497-0.375-0.856c-0.938-0.784-8.867-15.381-8.324-15.327c0.486,0.049-1.398-3.173-2.376-4.067
			c-0.458-0.418-0.519-0.785-0.159-0.96c0.396-0.196,0.269-0.651-0.403-1.437c-0.54-0.632-2.488-4.02-4.323-7.527
			c-1.839-3.508-3.593-6.856-3.899-7.441c-0.309-0.585-0.802-0.942-1.099-0.796c-0.529,0.26,15.039,31.503,30.672,61.557
			c3.182,6.116,6.213,11.979,6.736,13.027l0.951,1.911l-0.315-1.843C490.577,538.771,487.101,531.373,481.864,520.952z
			 M419.275,556.549c-0.13-0.264-0.464-0.366-0.741-0.229c-0.279,0.138-0.269,0.398,0.023,0.582c0.292,0.183,0.627,0.287,0.742,0.23
			C419.416,557.075,419.404,556.814,419.275,556.549z M483.266,515.113c-0.136-0.279-2.1-0.879-2.397-0.732
			c-0.149,0.073-0.067,0.551,0.183,1.06c0.311,0.634,0.751,0.756,1.377,0.385C482.936,515.527,483.313,515.208,483.266,515.113z
			 M407.808,527.01c-13.42-25.295-16.901-31.568-16.994-30.62c-0.043,0.446,1.285,3.349,2.95,6.455
			c10.646,19.846,11.195,20.938,10.656,21.202c-0.387,0.191-0.312,0.373,0.257,0.628c0.44,0.196,1.561,1.852,2.489,3.678
			c0.931,1.825,3.508,6.891,5.729,11.26c3.499,6.884,4.084,7.808,4.387,6.926C417.582,545.661,416.269,542.957,407.808,527.01z
			 M481.192,512.107c-0.201-0.411-0.517-0.504-0.705-0.206c-0.185,0.297-0.114,0.678,0.157,0.849
			C481.381,513.212,481.606,512.946,481.192,512.107z M480.006,509.381c-0.498-0.575-0.563-1.181-0.186-1.727
			c0.647-0.941-0.046-1.648-1.107-1.126c-0.394,0.194-0.466,0.804-0.168,1.419c0.287,0.594,0.479,1.496,0.424,2.006
			c-0.065,0.603,0.148,0.948,0.618,0.993C480.676,511.051,480.86,510.369,480.006,509.381z M481.954,505.197
			c-0.056-0.117-0.318-0.105-0.581,0.023c-0.264,0.13-0.367,0.463-0.23,0.742c0.139,0.279,0.4,0.268,0.583-0.024
			C481.909,505.647,482.011,505.312,481.954,505.197z M480.01,502.208c-0.666-0.227-0.73-0.037-0.292,0.857
			c0.44,0.893,0.631,0.957,0.856,0.292C480.802,502.69,480.677,502.435,480.01,502.208z M409.755,535.251
			c-0.236-0.083-0.211,0.257,0.059,0.749c0.297,0.548,0.465,0.604,0.43,0.149C410.212,535.736,409.992,535.331,409.755,535.251z
			 M478.657,498.985c-0.494-0.169-1.07,0.952-0.786,1.53c0.155,0.318,0.412,0.146,0.682-0.455
			C478.79,499.531,478.837,499.047,478.657,498.985z M477.059,497.431c-0.413,0.03-0.818,0.251-0.898,0.488
			c-0.081,0.237,0.258,0.213,0.753-0.056C477.459,497.564,477.516,497.395,477.059,497.431z M442.432,497.793
			c-0.237-0.08-0.211,0.257,0.058,0.752c0.298,0.546,0.467,0.603,0.432,0.147C442.89,498.279,442.669,497.875,442.432,497.793z
			 M417.274,506.738c-0.728-1.438-1.457-2.399-1.621-2.138c-0.404,0.642,1.904,5.263,2.486,4.977
			C418.393,509.453,418.004,508.175,417.274,506.738z M441.162,495.139c-0.294-0.264-0.271,0.059,0.053,0.717
			c0.322,0.657,0.563,0.873,0.535,0.478C441.721,495.94,441.457,495.403,441.162,495.139z M439.646,492.023
			c-0.347-0.403-0.26,0.022,0.192,0.944c0.453,0.921,0.736,1.25,0.629,0.73C440.363,493.178,439.992,492.423,439.646,492.023z
			 M465.89,481.227c0.632-1.85-1.673-4.405-3.267-3.622c-0.34,0.168-0.516,0.521-0.387,0.784c0.13,0.263,0.559,0.32,0.954,0.126
			c0.396-0.195,0.823-0.138,0.953,0.125c0.129,0.264-0.05,0.619-0.399,0.79c-0.434,0.213-0.345,0.736,0.282,1.645
			C465.021,482.519,465.438,482.553,465.89,481.227z M414.267,502.137c-0.235-0.081-0.211,0.257,0.06,0.751
			c0.296,0.546,0.465,0.604,0.429,0.147C414.725,502.622,414.506,502.218,414.267,502.137z M463.665,474.829
			c-1.002-1.199-2.097-1.573-2.538-0.87c-0.44,0.701,0.418,1.935,1.699,2.446C464.422,477.038,464.847,476.24,463.665,474.829z
			 M411.989,496.298c-1.18-2.147-2.414-4.867-2.748-6.046c-0.363-1.285-0.79-2.051-1.063-1.917c-0.27,0.132-0.729-0.674-1.125-1.973
			c-0.465-1.522-0.751-1.974-0.936-1.471c-0.15,0.409,0.839,3.031,2.268,6.015c4.306,8.991,5.067,10.373,5.415,9.82
			C413.989,500.424,413.224,498.555,411.989,496.298z M436.628,485.079c-0.638-0.254-0.775,1.479-0.147,1.873
			c0.499,0.313,0.644,0.138,0.558-0.668C436.972,485.686,436.787,485.143,436.628,485.079z M436.017,483.077
			c-0.224-0.441-0.772-1.025-1.222-1.295c-0.607-0.363-0.588-0.019,0.073,1.338c0.532,1.097,1.021,1.612,1.221,1.294
			C436.271,484.123,436.24,483.521,436.017,483.077z M433.265,478.672c-0.452-0.921-0.906-1.631-1.01-1.582
			c-0.103,0.051,0.096,0.888,0.44,1.862c0.347,0.973,0.801,1.686,1.012,1.582C433.917,480.432,433.719,479.594,433.265,478.672z
			 M430.2,471.812c-0.824-1.691-1.638-3.007-1.809-2.924c-0.389,0.191,1.742,5.706,2.468,6.388
			C431.945,476.297,431.661,474.807,430.2,471.812z M410.961,480.432c-0.131-0.263-0.465-0.366-0.744-0.229
			c-0.276,0.136-0.267,0.399,0.025,0.582c0.291,0.183,0.626,0.287,0.742,0.23C411.1,480.957,411.089,480.694,410.961,480.432z
			 M421.772,464.663c0.391-0.37,0.6-0.895,0.465-1.168c-0.134-0.273-0.517-0.204-0.849,0.156c-0.333,0.36-2.358,1.952-4.498,3.54
			c-2.141,1.586-3.816,3.042-3.721,3.237C413.33,470.754,420.188,466.159,421.772,464.663z M384.158,482.732
			c-0.101-0.214-0.333-0.151-0.517,0.141c-0.183,0.292-0.15,0.893,0.073,1.337c0.349,0.694,0.42,0.675,0.516-0.141
			C384.292,483.549,384.258,482.947,384.158,482.732z M404.29,473.812c-0.396,0.03-0.934,0.295-1.197,0.588
			c-0.265,0.295,0.059,0.271,0.716-0.051C404.468,474.025,404.684,473.784,404.29,473.812z M391.278,478.829
			c0.822-0.409,1.527-1.429,1.951-2.82c0.588-1.942,0.531-2.304-0.535-3.302c-0.658-0.617-1.355-1.044-1.55-0.949
			c-0.193,0.096-0.87-0.519-1.503-1.366c-1.298-1.734-2.151-1.388-1.736,0.703c0.278,1.406-0.776,5.608-1.496,5.961
			c-0.213,0.106-0.599,0.723-0.856,1.37c-0.557,1.402,0.375,2.501,1.32,1.553c0.504-0.504,0.53-0.355,0.107,0.621
			c-0.535,1.242-0.494,1.245,1.227,0.077C389.188,480.012,390.568,479.18,391.278,478.829z M428.938,457.356
			c0.134-0.395,0.036-0.79-0.22-0.877c-0.644-0.22-2.869,2.393-2.328,2.732C426.931,459.551,428.607,458.33,428.938,457.356z
			 M451.133,446.419c-0.587-0.365-1.232-0.583-1.436-0.483c-0.202,0.099,0.113,0.479,0.701,0.844
			c0.587,0.365,1.232,0.582,1.435,0.482C452.037,447.163,451.721,446.784,451.133,446.419z M413.61,460.449
			c-0.461-0.939-1.196-0.94-2.276-0.006c-1.092,0.944-0.88,1.631,0.419,1.365C413.529,461.445,413.95,461.139,413.61,460.449z
			 M432.093,451.823c-0.394,0.029-0.93,0.293-1.195,0.588c-0.263,0.294,0.059,0.271,0.717-0.054
			C432.272,452.034,432.488,451.794,432.093,451.823z M411.602,458.448c2.978-3.408,3.241-10.956,0.53-15.192
			c-0.705-1.103-2.279-2.586-3.502-3.301c-5.826-3.408-11.399-0.652-14.016,6.933c-1.034,2.998-0.915,3.96,0.866,6.994
			c1.385,2.36,6.396,5.877,9.437,6.625C408.028,461.268,409.546,460.802,411.602,458.448z M428.698,449.449
			c-2.019-0.473-3.893-0.065-3.489,0.756c0.705,1.434,1.643,1.618,3.522,0.69l1.981-0.977L428.698,449.449z M404.17,461.788
			c-0.131-0.262-0.571-0.312-0.982-0.111c-0.41,0.201-0.507,0.517-0.215,0.7c0.291,0.183,0.733,0.233,0.981,0.112
			C404.201,462.367,404.298,462.051,404.17,461.788z M382.995,471.24c0.439-0.746,1.275-1.451,1.857-1.569
			c1.528-0.312,4.267-3.249,5.74-6.155c1.067-2.104,1.142-2.783,0.461-4.19c-1.563-3.236-3.368-9.753-2.854-10.308
			c0.279-0.302,0.361-0.849,0.181-1.216c-0.18-0.366-0.096-0.779,0.183-0.917c0.301-0.148,0.178-0.599-0.296-1.093
			c-0.558-0.583-0.646-1.37-0.284-2.55c0.683-2.231,2.375-4.457,3.061-4.027c0.312,0.196,0.717-0.157,1.001-0.875
			c0.31-0.782,1.52-1.776,3.448-2.837c1.633-0.899,3.266-1.981,3.629-2.404c0.45-0.526,0.767-0.557,0.992-0.099
			c0.633,1.286-0.267,2.393-3.06,3.767c-2.656,1.305-2.763,1.428-1.975,2.25c0.662,0.691,0.645,0.885-0.087,0.952
			c-0.504,0.046-0.815,0.292-0.69,0.547c0.126,0.254,0.767,0.198,1.424-0.125c0.658-0.324,1.075-0.835,0.927-1.136
			c-0.189-0.386,0.71-0.921,3.049-1.812c3.282-1.25,6.495-1.737,6.838-1.037c0.098,0.198,1.437,0.812,2.977,1.361
			c2.072,0.742,3.183,0.813,4.274,0.276c2.205-1.084,4.842,1.266,3.863,3.447c-0.479,1.069,0.662,3.833,1.428,3.457
			c0.824-0.405,4.336,0.412,4.667,1.084c0.17,0.345,0.794,0.391,1.388,0.101c0.592-0.288,1.853-0.508,2.799-0.485
			c0.948,0.022,2.142-0.166,2.656-0.418c0.514-0.253,1.533-0.426,2.269-0.383c0.734,0.042,2.528-0.197,3.985-0.53
			c2.312-0.53,2.733-0.778,3.296-1.955c0.439-0.914,0.409-1.496-0.091-1.811c-0.418-0.262-0.66-0.784-0.559-1.208
			c0.327-1.361-2.438-7.568-6.479-14.552c-3.32-5.736-4.26-7.03-5.611-7.728c-1.737-0.899-3.562-2.754-3.872-3.941
			c-0.407-1.558-1.876-2.711-2.842-2.234c-0.865,0.425-2.85,0.56-6.571,0.45c-7.616-0.226-10.365,0.485-23.193,5.996
			c-7.627,3.277-10.42,4.789-10.088,5.462c0.122,0.247,0.557,0.284,0.967,0.083c0.41-0.201,0.72-0.092,0.687,0.244
			c-0.062,0.638-2.242,0.744-3.323,0.161c-0.318-0.171-1.128-0.052-1.802,0.264c-1.067,0.501-1.125,0.777-0.449,2.152
			c0.888,1.805,0.668,2.033-1.531,1.592c-1.53-0.31-1.668-0.241-4.538,2.218c-1.626,1.395-3.618,3.382-4.426,4.416
			c-0.807,1.035-1.807,2.211-2.224,2.617c-0.669,0.651-0.565,1.037,0.893,3.291c0.908,1.404,2.011,2.715,2.452,2.912
			c0.578,0.259,0.723,0.816,0.518,1.995c-0.158,0.899-0.443,1.721-0.636,1.827c-0.194,0.105,0.25,1.417,0.988,2.916
			c0.738,1.5,2.294,5.263,3.461,8.364c1.857,4.942,2.421,5.99,4.565,8.48c1.345,1.563,2.867,3.772,3.383,4.907
			C380.872,473.553,381.627,473.554,382.995,471.24z M437.205,441.979c-0.129-0.263-0.021-0.584,0.243-0.713
			c0.263-0.13,0.585-0.02,0.715,0.243c0.129,0.264,0.02,0.584-0.243,0.713C437.657,442.352,437.335,442.242,437.205,441.979z
			 M434.719,446.361c-0.412,0.031-0.818,0.252-0.899,0.488c-0.08,0.238,0.258,0.212,0.753-0.058
			C435.118,446.495,435.175,446.326,434.719,446.361z M402.028,461.058c-0.13-0.263-0.464-0.366-0.742-0.229
			c-0.279,0.138-0.269,0.4,0.024,0.583c0.291,0.184,0.625,0.286,0.741,0.229C402.168,461.583,402.158,461.321,402.028,461.058z
			 M398.738,458.983c-0.511-0.176-0.748-0.094-0.601,0.206c0.314,0.639,1.158,0.926,1.321,0.45
			C399.527,459.436,399.204,459.142,398.738,458.983z M394.675,458.187c-0.119-0.241-0.26-0.908-0.315-1.478
			c-0.092-0.975-0.125-0.963-0.515,0.162c-0.46,1.333-0.169,2.354,0.568,1.991C394.677,458.733,394.793,458.429,394.675,458.187z
			 M392.652,454.233c0.326,0.574,0.812,0.937,1.081,0.805c0.279-0.137,0.111-0.684-0.401-1.288
			c-0.548-0.646-0.685-1.149-0.358-1.311c0.292-0.143,0.436-0.451,0.321-0.685c-0.343-0.7-1.82,0.461-1.792,1.408
			c0.016,0.483,0.359,1.517,0.765,2.299c0.717,1.387,0.723,1.377,0.264-0.427C392.216,453.803,392.257,453.536,392.652,454.233z
			 M361.875,427.054c0.321-0.638,0.87-1.309,1.221-1.492c0.858-0.446,3.245-3.462,3.656-4.616c0.416-1.17,0.996-1.464,1.644-0.832
			c0.634,0.619,2.088-1.987,2.579-4.616c0.332-1.78,0.119-2.246-14.762-32.511c-14.933-30.37-18.568-37.13-19.606-36.452
			c-0.29,0.189-1.69,0.886-3.116,1.547c-2.049,0.953-2.606,1.032-2.666,0.379c-0.058-0.641-0.631-0.59-2.585,0.232
			c-2.877,1.209-4.695,0.646-6.61-2.049c-0.949-1.336-1.016-1.949-0.442-4.076c0.664-2.461,0.735-2.534,4.246-4.26
			c3.381-1.662,3.529-1.8,2.78-2.582c-4.665-4.864-11.308-12.395-19.543-22.148c-16.387-19.414-23.761-27.34-30.715-33.021
			c-0.749-0.612-2.947-2.606-4.883-4.432c-1.938-1.825-4.399-4.042-5.472-4.928c-1.073-0.886-2.369-2.156-2.88-2.823
			c-0.764-0.997-1.269-1.111-2.818-0.644c-4.858,1.466-25.211,12.757-32.043,17.778c-1.441,1.059-3.712,2.691-5.05,3.629
			c-2.544,1.786-3.602,2.812-6.545,6.359c-1.326,1.597-1.611,2.303-1.109,2.742c0.372,0.326,1.228,1.258,1.9,2.071
			c1.257,1.519,4.184,4.132,11.582,10.346c2.331,1.958,6.698,5.692,9.704,8.299c3.006,2.606,6.18,5.324,7.051,6.039
			c0.873,0.714,4.465,3.922,7.984,7.127c6.636,6.044,15.058,13.226,21.827,18.615c2.157,1.717,5.734,4.636,7.95,6.487
			c2.217,1.851,5.094,4.23,6.395,5.285c1.301,1.056,2.448,2.086,2.549,2.292c0.1,0.204,1.871,1.689,3.935,3.3
			c4.938,3.853,7.938,6.348,8.149,6.778c0.094,0.19,1.441,1.347,2.994,2.57c1.553,1.223,4.253,3.391,6,4.819
			c1.748,1.429,4.232,3.441,5.52,4.473c1.288,1.033,2.417,2.031,2.509,2.22c0.093,0.188,1.231,1.208,2.528,2.264
			c2.305,1.881,5.613,4.853,10.898,9.792c1.445,1.35,3.244,2.911,3.997,3.467c0.753,0.557,1.984,1.741,2.734,2.63
			c0.752,0.892,2.874,3.284,4.716,5.319c4.286,4.735,8.405,10.38,10.129,13.883c1.149,2.334,1.484,2.686,2.22,2.325
			C360.902,428.403,361.554,427.691,361.875,427.054z M391.823,412.212c-0.394,0.029-0.931,0.294-1.196,0.588
			c-0.263,0.294,0.058,0.271,0.717-0.053C392,412.424,392.216,412.183,391.823,412.212z M415.972,395.83
			c-2.827-7.137-4.757-14.678-5.844-22.823c-0.816-6.117-2.395-24.414-2.471-28.649c-0.037-2.031-0.183-3.924-0.322-4.208
			c-0.141-0.285-0.279-1.347-0.311-2.361c-0.12-3.941-0.591-10.347-0.79-10.75c-0.114-0.234-0.526-4.081-0.914-8.55
			c-0.388-4.468-0.891-9.903-1.117-12.079c-0.623-5.956-1.296-13.784-1.519-17.671c-0.109-1.907-0.344-4.732-0.521-6.28
			c-0.177-1.547-0.497-4.597-0.713-6.778c-0.481-4.883-0.901-8.004-2.358-17.556c-0.625-4.104-1.012-7.945-0.856-8.537
			c0.154-0.593,0.202-1.238,0.105-1.436c-0.155-0.315-0.525-3.882-2.035-19.552c-1.44-14.971-1.908-18.033-2.801-18.337
			c-0.628-0.214-2.429,0.176-11.88,2.573c-3.587,0.91-4.399,1.315-9.78,4.879c-14.652,9.706-20.795,14.579-20.536,16.295
			c0.085,0.561-0.197,1.443-0.626,1.958c-1.319,1.586,2.484,26.728,7.854,51.899c2.523,11.83,4.905,23.216,5.292,25.301
			c0.388,2.085,0.863,3.892,1.059,4.014c0.195,0.122,1.804-0.309,3.579-0.958c3.525-1.288,5.345-0.992,7.115,1.155
			c1.516,1.84,0.622,5.229-1.904,7.221c-1.095,0.862-2.218,1.546-2.495,1.519c-0.277-0.026-0.31,0.197-0.074,0.495
			c0.267,0.337-0.363,1.18-1.657,2.215c-3.607,2.889-3.974,1.699,8.084,26.304c12.242,24.98,22.463,44.491,24.428,46.63
			c1.292,1.405,1.578,1.449,5.013,0.764c2.002-0.398,4.424-0.769,5.378-0.822c0.954-0.052,2.523-0.473,3.488-0.935l1.753-0.838
			L415.972,395.83z M395.924,395.867c-0.543-1.815-29.506-60.506-30.016-60.827c-0.292-0.183-0.679-0.259-0.861-0.169
			c-0.182,0.089,4.883,10.633,11.253,23.43c6.371,12.797,13.376,26.909,15.568,31.359c2.192,4.451,4.062,7.869,4.153,7.596
			C396.115,396.982,396.07,396.357,395.924,395.867z M360.351,384.361c-6.503-13.112-13.316-26.79-15.14-30.396
			c-3.198-6.325-3.292-6.607-2.659-8.031c0.362-0.812,0.477-1.396,0.256-1.298c-0.219,0.097-0.564,0.659-0.764,1.248
			c-0.2,0.589-0.805,1.287-1.34,1.55c-0.94,0.463-0.875,0.654,1.88,5.463c1.57,2.74,8.333,15.924,15.026,29.298
			c6.695,13.373,12.485,24.918,12.87,25.656c0.444,0.854,0.878,1.161,1.197,0.846C372.068,408.308,369.629,403.068,360.351,384.361z
			 M374.601,369.33c-13.115-26.406-15.045-30.528-14.798-31.602c0.262-1.135,0.223-1.167-0.489-0.389
			c-0.424,0.464-3.938,2.562-7.808,4.659c-3.87,2.099-6.667,3.725-6.215,3.615c0.689-0.169,1.356,0.87,4.188,6.511
			c1.852,3.691,4.173,7.998,5.154,9.57c1.152,1.844,1.662,3.059,1.432,3.425c-0.197,0.312-0.152,0.696,0.099,0.854
			c0.25,0.157,2.211,3.586,4.358,7.618c3.041,5.717,3.77,7.401,3.302,7.638c-0.454,0.23-0.418,0.325,0.147,0.387
			c0.87,0.096,6.393,11.242,5.732,11.566c-0.221,0.109-0.015,0.476,0.457,0.815c0.472,0.341,2.096,3.218,3.607,6.396l2.75,5.778
			l6.584-3.237l6.582-3.237L374.601,369.33z M369.648,399.311c-0.237-0.08-0.211,0.258,0.058,0.752
			c0.297,0.547,0.466,0.604,0.431,0.147C370.106,399.796,369.886,399.392,369.648,399.311z M361.415,382.565
			c-0.237-0.081-0.212,0.258,0.057,0.752c0.297,0.546,0.466,0.603,0.432,0.146C361.872,383.05,361.652,382.646,361.415,382.565z
			 M365.634,346.316c-0.406-0.536-0.26-0.005,0.322,1.178c0.582,1.184,0.914,1.624,0.735,0.975
			C366.516,347.821,366.038,346.852,365.634,346.316z M362.702,340.34c-0.468-0.673-0.324-0.146,0.32,1.171
			c0.643,1.318,1.026,1.868,0.85,1.225C363.695,342.091,363.169,341.013,362.702,340.34z M343.292,346.917
			c-0.237-0.082-0.211,0.258,0.057,0.751c0.297,0.546,0.467,0.604,0.432,0.146C343.75,347.402,343.529,346.998,343.292,346.917z
			 M356.834,337.127c1.627-1.388,1.307-1.281-5.598,1.862c-6.038,2.749-8.349,4.438-3.95,2.888
			C350.889,340.606,355.365,338.38,356.834,337.127z M339.488,344.744c-0.288-0.586-0.503-0.537-1.067,0.248
			c-0.387,0.541-0.655,1.083-0.596,1.205c0.061,0.123,0.541,0.01,1.066-0.248C339.433,345.683,339.692,345.159,339.488,344.744z
			 M333.574,345.782c-0.414,0.031-0.818,0.251-0.898,0.488c-0.082,0.237,0.257,0.211,0.75-0.058
			C333.973,345.916,334.032,345.747,333.574,345.782z M369.297,327.435c0.669-0.782,0.604-0.812-0.577-0.27
			c-0.733,0.338-1.228,0.829-1.098,1.093C367.898,328.819,368.267,328.638,369.297,327.435z M339.691,330.053
			c2.239-1.426,8.528-4.818,13.973-7.538l9.903-4.944l-0.614-3.606c-0.337-1.985-1.682-8.562-2.989-14.619
			c-1.307-6.056-3.42-15.845-4.696-21.753c-1.276-5.908-2.924-15.257-3.664-20.775c-0.736-5.519-1.556-11.533-1.819-13.364
			c-0.263-1.832-0.458-3.809-0.434-4.392c0.038-0.901-0.168-0.956-1.359-0.372c-0.784,0.385-2.256,0.479-3.336,0.212
			c-1.064-0.264-2.748-0.248-3.742,0.035c-1.775,0.503-3.145,0.827-3.71,0.874c-0.156,0.014-0.452,0.148-0.658,0.299
			s-0.783,0.177-1.283,0.056c-0.501-0.121-1.057,0.016-1.238,0.303c-0.18,0.287-0.737,0.25-1.237-0.083
			c-0.5-0.332-0.784-0.332-0.63,0.001c0.338,0.731-1.05,1.525-1.405,0.804c-0.137-0.278-0.399-0.267-0.583,0.024
			c-0.184,0.293-0.672,0.499-1.087,0.458c-0.413-0.04-1.279,0.103-1.922,0.317c-0.645,0.214-1.766,0.59-2.494,0.835
			c-0.727,0.245-1.624,0.257-1.992,0.024c-0.44-0.275-0.691-0.197-0.733,0.228c-0.042,0.432-0.612,0.637-1.705,0.613
			c-0.903-0.02-1.959,0.269-2.348,0.641c-0.428,0.411-0.83,0.429-1.018,0.048c-0.185-0.375-0.925-0.355-1.822,0.045
			c-0.832,0.373-1.791,0.502-2.133,0.287c-0.343-0.215-0.915-0.076-1.271,0.309c-0.389,0.42-0.764,0.464-0.938,0.112
			c-0.222-0.453-0.381-0.382-0.688,0.303c-0.279,0.621-0.572,0.784-0.965,0.538c-0.311-0.195-0.722-0.105-0.912,0.2
			c-0.191,0.304-0.686,0.351-1.097,0.103c-0.629-0.377-0.769-0.297-0.875,0.503c-0.1,0.756-0.269,0.866-0.825,0.534
			c-0.385-0.231-0.991-0.105-1.348,0.279c-0.389,0.42-0.764,0.465-0.937,0.112c-0.216-0.438-0.387-0.372-0.67,0.26
			c-0.208,0.467-0.599,0.775-0.866,0.683c-0.449-0.152-3.295,0.888-6.488,2.374c-0.731,0.34-1.459,0.365-1.614,0.056
			c-0.216-0.425-0.307-0.378-0.37,0.194c-0.094,0.851-2.109,1.867-3.268,1.648c-0.453-0.086-0.788,0.135-0.827,0.548
			c-0.045,0.461-0.428,0.511-1.149,0.148c-1.014-0.508-1.058-0.489-0.687,0.302c0.512,1.088-0.43,1.58-0.96,0.502
			c-0.311-0.633-0.465-0.624-0.692,0.042c-0.41,1.205-0.989,1.373-1.456,0.424c-0.355-0.724-0.419-0.683-0.608,0.389
			c-0.161,0.907-0.375,1.097-0.88,0.78c-0.534-0.335-0.684-0.257-0.746,0.387c-0.063,0.658-0.274,0.759-1.14,0.551
			c-0.776-0.187-0.986-0.102-0.781,0.314c0.173,0.352-0.144,0.633-0.827,0.736c-0.684,0.104-0.999,0.384-0.826,0.736
			c0.214,0.434,0.056,0.516-0.665,0.343c-0.726-0.175-0.923-0.061-0.849,0.493c0.077,0.58-0.124,0.668-1.023,0.455
			c-0.97-0.23-1.062-0.152-0.7,0.585c0.397,0.81,0.353,0.832-0.964,0.455c-1.244-0.356-1.344-0.315-0.994,0.396
			c0.513,1.043-0.263,1.389-1.226,0.546c-0.626-0.547-0.71-0.374-0.474,0.975c0.216,1.233,0.8,2.083,2.346,3.413
			c1.132,0.975,2.445,2.562,2.92,3.526l0.862,1.754l-2.135,0.793c-1.174,0.437-2.591,0.812-3.148,0.833
			c-1.057,0.041-0.704,0.412,4.597,4.829c7.638,6.367,17.267,16.043,22.413,22.528c3.13,3.943,20.141,23.782,23.84,27.806
			c2.483,2.701,5.082,5.535,5.774,6.3l1.258,1.392l2.79-1.777C334.364,333.448,337.452,331.48,339.691,330.053z M349.261,235.954
			c0.779-0.892,1.307-1.656,1.169-1.697c-0.495-0.146-5.25,3.651-5.059,4.04C345.687,238.938,347.727,237.709,349.261,235.954z
			 M217.463,299.571c-0.057-0.117-0.318-0.106-0.582,0.024c-0.263,0.129-0.365,0.462-0.229,0.741
			c0.137,0.279,0.399,0.269,0.582-0.023C217.417,300.021,217.52,299.687,217.463,299.571z M275.384,269.956
			c-0.667-1.355-5.083-5.539-5.585-5.292c-0.196,0.096-0.755-0.23-1.242-0.726l-0.886-0.902l0.309,1.153
			c0.262,0.978,0.043,1.244-1.439,1.751c-2.178,0.745-1.979,1.262,1.612,4.199c2.282,1.866,2.986,2.141,4.965,1.939
			C275.799,271.807,276.138,271.489,275.384,269.956z M345.229,235.594c-0.194-0.395-0.567-0.612-0.831-0.482
			c-0.264,0.13-0.319,0.558-0.125,0.953c0.194,0.395,0.568,0.612,0.832,0.482C345.368,236.417,345.424,235.988,345.229,235.594z
			 M346.787,234.531c-0.292-0.184-0.626-0.287-0.743-0.229c-0.116,0.058-0.104,0.319,0.025,0.582
			c0.129,0.264,0.462,0.366,0.741,0.23C347.089,234.977,347.079,234.714,346.787,234.531z M347.865,232.973
			c-0.725-0.247-0.767,0.683-0.05,1.133c0.542,0.339,0.655,0.284,0.578-0.282C348.339,233.438,348.102,233.055,347.865,232.973z
			 M346.807,232.104c0.036-0.366,0.395-0.696,0.798-0.732c0.77-0.07,0.418-2.18-0.764-4.584c-0.834-1.696-3.576-3.003-4.906-2.339
			c-1.539,0.767-1.828,4.675-0.584,7.854l1.024,2.616l2.184-1.073C345.76,233.254,346.772,232.471,346.807,232.104z
			 M394.316,208.551c-0.051-0.104-0.49-0.152-0.976-0.108c-0.506,0.046-0.658,0.22-0.358,0.409
			C393.487,209.169,394.506,208.939,394.316,208.551z M348.847,228.926c-0.725-0.247-0.768,0.683-0.051,1.131
			c0.542,0.341,0.654,0.285,0.577-0.28C349.321,229.39,349.083,229.007,348.847,228.926z M366.917,219.286
			c0.597-0.996-0.159-0.624-1.197,0.588c-0.497,0.582-0.505,0.77-0.023,0.555C366.099,220.25,366.648,219.735,366.917,219.286z
			 M221.475,290.207c-0.293-0.183-0.626-0.286-0.742-0.229c-0.117,0.057-0.105,0.319,0.023,0.582
			c0.13,0.263,0.463,0.367,0.742,0.229C221.777,290.652,221.766,290.391,221.475,290.207z M374.204,214.771
			c5.449-3.219,5.13-3.587-0.431-0.498c-2.774,1.541-4.688,2.89-4.854,3.421c-0.214,0.688-0.098,0.717,0.55,0.132
			C369.92,217.418,372.052,216.043,374.204,214.771z M385.008,210.163c-0.05-0.101-0.576-0.085-1.171,0.036
			c-0.594,0.122-0.983,0.416-0.866,0.654c0.118,0.238,0.644,0.222,1.169-0.037C384.668,210.558,385.057,210.263,385.008,210.163z
			 M222.914,288.905c-0.129-0.263-0.451-0.373-0.714-0.243c-0.264,0.13-0.372,0.451-0.243,0.713
			c0.129,0.264,0.449,0.374,0.713,0.244C222.934,289.49,223.043,289.169,222.914,288.905z M381.716,211.007
			c-0.516,0.105-1.379,0.524-1.918,0.931c-0.539,0.407-0.116,0.321,0.939-0.191C381.792,211.234,382.233,210.901,381.716,211.007z
			 M225.299,286.509c-0.136-0.278-0.398-0.268-0.582,0.024c-0.183,0.292-0.286,0.626-0.229,0.742
			c0.057,0.116,0.319,0.104,0.582-0.024C225.334,287.121,225.436,286.788,225.299,286.509z M229.388,283.346
			c-0.292-0.184-0.626-0.287-0.742-0.229c-0.116,0.057-0.105,0.319,0.024,0.582s0.463,0.367,0.742,0.229
			C229.691,283.791,229.68,283.528,229.388,283.346z M264.677,262.353c-0.43-0.147-0.973,0.037-1.206,0.408
			c-0.312,0.498-0.137,0.642,0.667,0.556C265.473,263.17,265.729,262.711,264.677,262.353z M84.827,337.514
			c-0.042-0.459-0.345-0.861-0.673-0.893c-0.328-0.032-0.379,0.386-0.112,0.927C84.61,338.704,84.933,338.69,84.827,337.514z
			 M447.63,61.395c-0.279-0.175-0.765-0.042-1.076,0.296c-0.804,0.866-0.556,1.075,0.599,0.507
			C447.694,61.931,447.911,61.57,447.63,61.395z M446.422,60.18c-0.29-0.183-0.625-0.287-0.74-0.229
			c-0.116,0.057-0.105,0.319,0.023,0.582c0.13,0.264,0.464,0.367,0.741,0.229C446.727,60.625,446.714,60.363,446.422,60.18z
			 M437.65,55.434c-0.294-0.264-0.271,0.058,0.053,0.716c0.323,0.658,0.563,0.874,0.535,0.479
			C438.209,56.235,437.944,55.697,437.65,55.434z M373.575,24.272c-0.237-0.081-0.21,0.257,0.058,0.751
			c0.297,0.546,0.466,0.604,0.431,0.147C374.032,24.757,373.812,24.353,373.575,24.272z M363.461,21.954
			c-0.292-0.183-0.732-0.233-0.98-0.112c-0.249,0.122-0.345,0.437-0.215,0.7c0.129,0.264,0.57,0.314,0.98,0.112
			C363.656,22.452,363.754,22.137,363.461,21.954z M333.859,16.499c-0.415,0.031-0.818,0.251-0.9,0.488
			c-0.08,0.236,0.257,0.211,0.752-0.058C334.257,16.633,334.315,16.464,333.859,16.499z M398.378,534.495
			c-0.27-0.493-0.295-0.833-0.058-0.753c0.236,0.083,0.457,0.486,0.489,0.898C398.844,535.1,398.674,535.04,398.378,534.495z
			 M397.437,532.582c-0.269-0.496-0.295-0.833-0.058-0.753c0.237,0.081,0.458,0.485,0.489,0.898
			C397.902,533.184,397.733,533.127,397.437,532.582z M472.679,495.088c-0.408-0.371-0.532-0.778-0.278-0.903
			c0.255-0.125,0.305-0.55,0.111-0.944c-0.194-0.395-0.139-0.823,0.125-0.954c0.829-0.407-0.15-1.613-1.132-1.393
			c-0.514,0.115-0.081-0.093,0.964-0.463c1.603-0.567,1.792-0.771,1.209-1.311c-0.379-0.351-0.93-0.38-1.222-0.065
			c-0.681,0.735-1.439-0.728-1.169-2.254c0.177-1.005,0.402-0.936,2.071,0.649c1.032,0.978,1.671,1.879,1.421,2.002
			c-0.252,0.124-0.298,0.547-0.103,0.941c0.193,0.395,0.543,0.625,0.774,0.51c0.232-0.113,0.77,0.253,1.195,0.817
			c0.649,0.86,0.593,1.062-0.35,1.263c-0.616,0.131-1.337,0.112-1.604-0.042c-0.719-0.418-1.769,0.942-1.505,1.947
			C473.398,495.683,473.351,495.701,472.679,495.088z M472.297,482.948c-0.322-0.657-0.347-0.979-0.053-0.716
			c0.295,0.263,0.561,0.803,0.589,1.197C472.861,483.822,472.62,483.606,472.297,482.948z M471.072,480.243
			c-0.36-0.335-0.531-0.972-0.382-1.416c0.206-0.604,0.438-0.479,0.912,0.483C472.311,480.749,472.072,481.168,471.072,480.243z
			 M312.038,547.49c-0.13-0.264-0.02-0.583,0.243-0.712c0.263-0.132,0.584-0.021,0.714,0.242c0.129,0.263,0.02,0.584-0.244,0.712
			C312.488,547.862,312.168,547.753,312.038,547.49z M383.867,506.23c-0.514-1.017-0.281-2.482,0.333-2.097
			c0.28,0.176,0.4,0.879,0.269,1.564C384.284,506.656,384.145,506.779,383.867,506.23z M543.037,341.852
			c-0.138-0.278-0.033-0.612,0.23-0.741c0.262-0.13,0.525-0.14,0.581-0.025c0.059,0.117-0.045,0.451-0.228,0.742
			C543.437,342.12,543.175,342.129,543.037,341.852z M95.476,352.459c-0.899-0.633-1.993-2.95-1.952-4.135
			c0.057-1.643,1.028-1.972,1.267-0.43c0.106,0.683,0.416,2.068,0.687,3.079C95.749,351.983,95.749,352.651,95.476,352.459z
			 M73.391,306.05c-0.669-0.072-0.916-0.496-1.14-1.956c-1.034-6.728-1.682-10.243-2.042-11.101
			c-0.228-0.541-0.451-1.368-0.495-1.835c-0.045-0.469-0.312-2.209-0.594-3.867c-0.283-1.658-0.494-3.489-0.469-4.068
			c0.024-0.58-0.222-1.595-0.547-2.257c-0.325-0.661-0.376-1.309-0.112-1.438c0.263-0.129,0.189-0.83-0.162-1.555
			c-0.351-0.727-0.589-1.745-0.528-2.266c0.085-0.725,0.275-0.611,0.817,0.49c0.932,1.896,2.337,8.08,2.078,9.155
			c-0.112,0.466,0.224,1.889,0.746,3.161c0.522,1.272,0.77,2.6,0.549,2.953c-0.22,0.35-0.038,1.431,0.404,2.4
			c0.502,1.098,0.571,1.878,0.183,2.068c-0.794,0.391-0.418,1.2,0.525,1.13c0.574-0.042,0.601,0.014,0.137,0.279
			c-0.903,0.517,0.021,1.818,0.967,1.363c0.698-0.335,0.759-0.271,0.362,0.376c-0.263,0.43-0.688,0.761-0.945,0.736
			c-0.756-0.073-0.609,2.095,0.29,4.293c0.459,1.123,0.833,2.039,0.832,2.035C74.245,306.145,73.859,306.101,73.391,306.05z
			 M71.116,286.904c-0.324-0.658-0.348-0.98-0.053-0.717c0.294,0.264,0.559,0.802,0.588,1.197
			C71.68,287.778,71.439,287.562,71.116,286.904z M69.3,277.141c-0.486-1.201-0.676-2.388-0.421-2.638
			c0.342-0.334,0.607,0.144,1.009,1.817C70.631,279.412,70.369,279.78,69.3,277.141z M96.43,146.459
			c-0.057-0.116,0.046-0.451,0.229-0.743c0.183-0.292,0.445-0.302,0.583-0.024c0.136,0.279,0.034,0.613-0.23,0.742
			C96.749,146.563,96.486,146.575,96.43,146.459z M268.09,21.32c-1.106,0.057-1.111,0.033-0.1-0.504
			c0.583-0.31,1.166-0.348,1.295-0.085c0.13,0.263,0.174,0.491,0.099,0.503C269.31,21.249,268.728,21.287,268.09,21.32z"/>
	</g>
</g>
</svg>
